<?xml version="1.0" standalone="no"?>
<!DOCTYPE svg PUBLIC "-//W3C//DTD SVG 1.1//EN" "http://www.w3.org/Graphics/SVG/1.1/DTD/svg11.dtd" >
<svg xmlns="http://www.w3.org/2000/svg">
<metadata>
This is a custom SVG webfont generated by Font Squirrel.
Copyright   : nullnamesubstitute
</metadata>
<defs>
<font id="teamworkRegular" horiz-adv-x="2367" >
<font-face units-per-em="2048" ascent="1638" descent="-410" />
<missing-glyph horiz-adv-x="500" />
<glyph unicode="!" d="M41 571q0 383 268 654q178 178 416 240.5t471.5 0t398.5 -240.5q178 -178 240.5 -416t0.5 -474.5t-241 -412.5q-166 -178 -399 -242.5t-471 0t-416 242.5q-268 266 -268 649zM782 1204l45 -925h252l43 925h-340zM827 -78h252v246h-252v-246z" />
<glyph unicode="&#x22;" d="M41 -254v1704h1184v-1704h-424v338h-338v-338h-422zM209 338h170v254h-170v-254zM209 676h170v254h-170v-254zM209 1016h170v252h-170v-252zM547 338h170v254h-170v-254zM547 676h170v254h-170v-254zM547 1016h170v252h-170v-252zM887 338h168v254h-168v-254zM887 676 h168v254h-168v-254zM887 1016h168v252h-168v-252z" />
<glyph unicode="#" d="M41 -76v1694h1522v-258h-174v86h-1199v-1096h84v-426h-233zM362 -399v1671h1522v-1671h-1522zM530 6h1180v1116h-1180v-1116zM694 553v117h813v-117h-813zM694 799v125h813v-125h-813z" />
<glyph unicode="$" d="M33 676q0 381 268 649q268 270 650 270t651 -270q268 -268 268 -649t-268.5 -649.5t-650.5 -268.5t-650 268.5t-268 649.5zM592 240q115 -59 270 -66v-151h158v165q135 23 209 104t74 191q0 109 -61.5 178.5t-205.5 118.5q-106 39 -151 70t-45 65q0 39 32.5 66t104.5 29 q104 0 231 -54l49 181q-109 47 -237 49v141h-158l4 -153q-127 -25 -198.5 -102t-71.5 -183q2 -111 77 -178.5t214 -112.5q92 -33 132 -62.5t40 -74.5q0 -47 -42 -74t-114 -29q-131 0 -266 70z" />
<glyph unicode="%" horiz-adv-x="2404" d="M41 -12l301 -297l1370 1372l-301 297zM719 1466l100 103l199 -201l-98 -100zM1112 858l299 301l102 -96l-301 -301zM1264 1481v282h143v-282h-143zM1622 567l199 -198l98 98l-199 199zM1720 1466l199 203l98 -100l-196 -201zM1843 967v141h283v-141h-283z" />
<glyph unicode="&#x26;" horiz-adv-x="2228" d="M42 1147q-1 100 17.5 152.5t44.5 80.5l437 -436q-80 -68 59 -227q156 -184 307 -307q68 -53 101.5 -78t73.5 -46.5t64.5 -19.5t47.5 25l426 -416q-29 -29 -85 -49.5t-160.5 -18t-227.5 43t-295 158.5t-350 302q-170 174 -277.5 339t-144.5 281t-38 216zM164 1440l119 119 q16 23 44.5 22.5t45.5 -22.5l346 -336q16 -16 18 -46t-18 -55l-119 -118zM1253 350l119 129q16 16 45 16.5t45 -16.5l336 -336q16 -16 18.5 -44.5t-18.5 -45.5l-119 -119z" />
<glyph unicode="'" d="M69.5 1211.5q61.5 185.5 220.5 306t339 120.5q182 0 338.5 -112.5t220 -299t-20.5 -423.5q-31 -78 -59.5 -122t-53 -62.5t-75.5 -78t-113 -149.5l-6 -131h-461l-6 131q-61 92 -113.5 153.5t-78 84t-54 64.5t-57.5 110q-82 223 -20.5 408.5zM399 29h461v-78h-461v78z M399 90v78h461v-78h-461zM498 -160h274l-47 -88h-178z" />
<glyph unicode="(" d="M41 729q0 270 192.5 462.5t462.5 192.5q272 0 464 -192.5t192 -462.5q0 -172 -84 -321l286 -287q45 -45 45 -107.5t-45 -107.5q-43 -43 -106.5 -43t-106.5 43l-278 278q-166 -111 -367 -110q-270 0 -462.5 191.5t-192.5 463.5zM244 729.5q0 -188.5 133 -322t319 -133.5 q188 0 321.5 133.5t133.5 321.5q0 186 -133 319.5t-321.5 133.5t-320.5 -132t-132 -320.5zM393 627v200h201v201h201v-201h202v-200h-202v-203h-201v203h-201z" />
<glyph unicode=")" d="M41 729q0 270 192.5 462.5t462.5 192.5q272 0 464 -192.5t192 -462.5q0 -172 -84 -321l286 -287q45 -45 45 -107.5t-45 -107.5q-43 -43 -106.5 -43t-106.5 43l-278 278q-166 -111 -367 -110q-270 0 -462.5 191.5t-192.5 463.5zM244 729.5q0 -188.5 133 -322t319 -133.5 q188 0 321.5 133.5t133.5 321.5q0 186 -133 319.5t-321.5 133.5t-320.5 -132t-132 -320.5zM393 627v200h604v-200h-604z" />
<glyph unicode="*" d="M41 881h747l244 714l244 -714h749l-614 -453l231 -727l-610 446l-608 -446l229 727z" />
<glyph unicode="+" horiz-adv-x="2404" d="M33 604q0 379 268 647q178 178 413.5 241.5t472 0.5t412.5 -242q270 -268 270.5 -647t-270.5 -649q-268 -270 -648 -270t-650 270q-268 270 -268 649zM375 496h459v-459h235v459h459v235h-459v459h-235v-459h-459v-235z" />
<glyph unicode="," d="M41 778v639h639l1106 -1083l-658 -658zM252 1032q0 -66 57.5 -118t132.5 -52q66 0 118 53.5t52 116.5q0 78 -51 135.5t-119 57.5q-78 0 -134 -56.5t-56 -136.5z" />
<glyph unicode="-" d="M41 604q0 379 268 647q178 178 413.5 241.5t472.5 0.5t413 -242q270 -268 270 -647t-270 -649q-268 -270 -648 -270t-651 270q-268 270 -268 649zM383 496h1153v235h-1153v-235z" />
<glyph unicode="." d="M41 98q0 -98 69.5 -167.5t168.5 -69.5q100 0 168.5 68.5t68.5 168.5q0 98 -69.5 168t-167.5 70q-96 0 -167 -71t-71 -167zM754 98q0 -100 69.5 -168.5t169.5 -68.5q98 0 168 69.5t70 167.5q0 96 -70.5 167t-167.5 71q-100 0 -169.5 -70t-69.5 -168zM1466 98 q0 -100 70 -168.5t168 -68.5t168 69.5t70 167.5q0 96 -71 167t-167 71q-98 0 -168 -71t-70 -167z" />
<glyph unicode="/" d="M41 -211v1643h2140v-1643h-2140zM182 -86h1862v1395h-1862v-1395zM281 387l143 -143l141 209l291 -408l334 666l78 170l395 -420l279 561l-177 90l-141 -285l-391 416l-199 -401l-200 -398l-269 357z" />
<glyph unicode="0" d="M41 612q0 -279 134 -511t367.5 -366t514.5 -134q279 0 511 134t366 366.5t134 511t-133 511t-366.5 366.5t-511.5 134q-426 0 -721 -294t-295 -718zM264 612q0 336 230.5 574.5t562.5 238.5t572.5 -239.5t240.5 -573.5q0 -332 -240.5 -573.5t-572.5 -241.5t-562.5 240.5 t-230.5 574.5zM442 340q0 51 23 78q25 0 47.5 -5t32.5 -10.5t34.5 -19.5t32.5 -21q94 137 120 212t26 235q-18 -8 -37 -52t-59 -44q-35 0 -55.5 17.5t-26 54t-5.5 69.5t4.5 89t4.5 89q88 0 136 -3t114.5 -26.5t101.5 -70.5q23 -25 40 -80t30 -66q45 -23 119.5 -18.5t146 19 t136.5 0t91 -73.5q0 -27 -38 -34t-38 -13q-43 -137 103 -275q16 0 59 19.5t84 7.5q18 -41 5 -59.5t-50 -18.5h23q-322 -121 -590 -121q-336 0 -615 121zM758 313q133 -35 308 -34.5t288 34.5q-18 98 -107.5 149.5t-191 48.5t-190.5 -56.5t-107 -141.5z" />
<glyph unicode="1" d="M41 663.5q0 378.5 268.5 647t647 268.5t647 -268.5t268.5 -647t-268.5 -647t-647 -268.5t-647 268.5t-268.5 647zM139 663.5q0 -337.5 239.5 -577.5t577.5 -240t578 240t240 577.5t-240 577.5t-578 240t-577.5 -240t-239.5 -577.5zM313 866h486l157 459l158 -459h485 l-397 -293l148 -469l-394 289l-393 -289l148 469z" />
<glyph unicode="2" d="M41 637q0 379 268.5 648t647 269t647 -269t268.5 -648t-268.5 -647.5t-647 -268.5t-647 268.5t-268.5 647.5zM137 637q0 -338 240.5 -577.5t578.5 -239.5q340 0 580 239.5t240 577.5q0 340 -240 579.5t-580 239.5q-338 0 -578.5 -239.5t-240.5 -579.5zM575 489v502 q0 53 37 90t90 37q51 0 88 -37t37 -90v-125h373q51 0 88 -36.5t37 -88.5q0 -53 -37 -90t-88 -37h-373v-122q0 -53 37 -91q39 -35 88 -34h248q51 0 88 -37t37 -90q0 -51 -37 -88t-88 -37h-248q-156 0 -266.5 110t-110.5 264z" />
<glyph unicode="3" d="M41 1006q0 211 147.5 359t358.5 148q143 0 270 -77q72 12 150 12q360 0 616 -256t256 -617q0 -90 -20 -188q53 -111 53 -225q0 -209 -148.5 -357.5t-357.5 -148.5q-127 0 -240 59q-94 -14 -159 -14q-362 0 -618.5 256t-256.5 618q0 92 19 175q-70 117 -70 256zM451 326 q0 -78 55 -158t145 -127q119 -66 312 -66q162 0 274 48q115 49 176.5 135t61.5 194q0 90 -35 154q-37 61 -99 104q-59 39 -149 68q-72 23 -195 51q-55 12 -120 29q-29 8 -70 26q-35 18 -51 41q-18 23 -19 52q0 49 56 81q53 39 149 39q100 0 148 -34q43 -35 77 -97 q27 -49 52 -69q25 -23 75 -23q53 0 90 37q35 39 35 84q0 49 -26 100q-29 51 -84 95q-59 47 -146 71q-82 27 -202 27q-152 0 -256 -39q-111 -39 -170 -119q-59 -78 -60 -176q0 -106 55 -174q59 -72 152 -111q92 -41 227 -67q86 -18 162 -41q61 -20 92 -51q35 -31 35 -82 q0 -63 -65 -111q-72 -45 -177 -45q-76 0 -127 23q-43 20 -73 57q-23 31 -49 88q-20 49 -52 76q-33 27 -77 26q-51 0 -91 -34q-36 -35 -36 -82z" />
<glyph unicode="4" d="M41 663.5q0 378.5 268.5 647t647 268.5t647 -268.5t268.5 -647t-268.5 -647t-647 -268.5t-647 268.5t-268.5 647zM139 663.5q0 -337.5 239.5 -577.5t577.5 -240t578 240t240 577.5t-240 577.5t-578 240t-577.5 -240t-239.5 -577.5zM709 639h112v-541h223v541h148l20 186 h-168v93q0 41 12.5 57t61.5 16h92v187h-147q-129 0 -185.5 -61.5t-56.5 -180.5v-111h-112v-186z" />
<glyph unicode="5" d="M41 -147l68 -82q37 31 90 79q139 129 218 229.5t97 167t6 115t-55 88t-86 72.5t-87 80t-59 98q-23 82 41 91q61 4 98.5 -12.5t49.5 -35t32.5 -67.5t34.5 -76q53 -88 135.5 -82t161 63.5t115.5 127.5q39 76 75 178t58.5 174t81 164t150.5 170q82 70 157.5 94t100.5 8 q10 -37 -86.5 -134t-213 -216t-143.5 -189q-33 -76 18.5 -159.5t135.5 -61.5q49 14 131 109.5t170 212.5t127 153q49 45 96 54.5t71.5 -11t16.5 -67.5t-59 -98q-31 -31 -103.5 -80t-127 -87t-93.5 -98.5t-26 -124.5q10 -47 33.5 -75.5t50 -37.5t68.5 -6t70 10t74 21.5 t62 18.5q164 39 225 -21q43 -43 -6 -86q-80 -74 -286 -37q-49 8 -105 25q-156 45 -203 -47q-37 -70 13 -148q41 -68 114 -71q109 -6 168 -70q43 -47 0 -65q-70 -31 -299 67q-78 33 -146.5 43t-120.5 6t-106.5 -36.5t-87 -59.5t-79 -87t-69 -95t-67.5 -112t-65 -107l90 -58 q119 195 158 248q51 76 90 118t92 68.5t117.5 18.5t152.5 -45q281 -121 410 -39q80 51 51 143q-33 98 -160 144q-55 20 -123 24q-25 2 -37 21.5t-1 36.5q14 18 77 2q348 -102 488 12q84 68 49 168t-154 139q-92 29 -204 2q-16 -4 -49 -14t-50 -14q-4 -2 -19.5 -6.5 t-23.5 -7.5t-21.5 -6t-22.5 -2t-19.5 4t-16.5 12.5t-8 21.5q-6 27 17.5 59.5t51 53t73 49t53.5 35.5q221 150 219 303q-2 98 -94 139q-111 47 -232 -39q-20 -12 -39 -31q-29 -25 -119 -146.5t-168.5 -217t-99.5 -84.5q-111 59 164 311q10 10 76 68q37 31 74.5 71.5t78.5 100 t39 115t-61 85.5q-68 35 -175.5 0.5t-201.5 -118.5q-90 -78 -157.5 -177.5t-97.5 -170t-62 -171.5q-43 -139 -74 -198q-27 -51 -96.5 -102.5t-112.5 -24.5q-14 8 -26.5 42t-30 71.5t-46 75.5t-87 59.5t-142.5 15.5q-92 -8 -124.5 -74.5t-8.5 -148.5q23 -78 88.5 -154 t163.5 -131q29 -16 33 -46t-12.5 -69t-44 -80.5t-67.5 -87t-77 -84t-77 -76.5t-61.5 -57.5t-37.5 -33.5z" />
<glyph unicode="6" />
<glyph unicode="7" />
<glyph unicode="8" d="M41 469l186 987q10 41 43 55l117 78q41 20 76 -49q23 -47 -47 -88l-47 -33q-2 -2 -7 -4q-2 -2 -12 -9t-17 -19.5t-11 -30.5q-39 -143 -109 -740h98q66 86 164 135.5t209 49.5t210 -50.5t165 -134.5h352q143 184 375 185q111 0 209 -49.5t164 -135.5h96q-72 610 -105 740 q-6 18 -14 30.5t-17.5 19.5t-11.5 9q-53 43 -53 37q-72 39 -47 88q35 70 76 49l117 -78q33 -14 43 -55l184 -987q6 -37 -21 -68l-75 -75q-20 -20 -54 -21h-18q-8 -188 -146.5 -319t-326.5 -131q-197 0 -335 138t-138 333h-156q0 -195 -139 -333t-334 -138q-190 0 -326.5 131 t-146.5 319h-18q-29 0 -56 21l-76 75q-24 29 -20 68zM369 326q0 -131 92 -224q96 -92 223 -92t225 92q92 92 92 224q0 129 -92 225q-98 94 -225 94q-129 0 -223 -94q-92 -96 -92 -225zM1468 326q0 -131 93 -224q96 -92 225 -92q127 0 223 92q92 92 92 224q0 129 -92 225 q-94 94 -223 94q-131 0 -225 -94q-93 -96 -93 -225z" />
<glyph unicode="9" d="M41 555v221q0 14 20.5 24.5t49.5 10.5q63 76 159 76h670q61 0 158 -117h248q92 117 157 117h670q94 0 158 -76q29 0 49 -10t20 -25v-221q0 -20 -41 -35l-45 -317q-4 -84 -64.5 -142.5t-144.5 -58.5h-536q-84 0 -143.5 58.5t-63.5 142.5l-35 241q0 31 -30.5 52.5 t-75.5 21.5q-43 0 -75 -21.5t-32 -52.5l-35 -241q-2 -84 -62.5 -142.5t-144.5 -58.5h-536q-84 0 -143.5 58.5t-63.5 142.5l-47 317q-41 15 -41 35zM250 657l57 -411q2 -4 2 -10q0 -23 15.5 -38.5t37.5 -15.5h484q23 0 38 15.5t15 38.5q0 6 2 10l27 200l30 211 q-2 23 -17 37.5t-36 14.5h-600q-23 0 -38 -14.5t-17 -37.5zM1487 657l31 -211l28 -200q2 -4 2 -8q0 -23 15.5 -38.5t38.5 -15.5h479q23 0 38 15.5t15 38.5q0 4 2 8l59 411q-2 23 -17 38.5t-36 15.5h-600q-20 0 -36.5 -15.5t-18.5 -38.5z" />
<glyph unicode=":" d="M41 -37v-74h1911v74h-1911zM115 977v74l809 514h147l807 -514v-74h-1763zM188 37h1616v74h-1616v-74zM336 227h219v672h-219v-672zM702 227h222v672h-222v-672zM1071 227h217v672h-217v-672zM1436 227h221v672h-221v-672z" />
<glyph unicode=";" d="M41 537l360 362l412 -412l893 891l360 -362l-1251 -1252l-2 3l-4 -3z" />
<glyph unicode="=" horiz-adv-x="2404" d="M41 0v246h1655v-246h-1655zM41 410v245h1655v-245h-1655zM41 819v246h1655v-246h-1655zM41 1229h1655v246h-1655v-246z" />
<glyph unicode="&#x3e;" horiz-adv-x="2408" />
<glyph unicode="?" d="M41 572q0 384 270 655q270 268 654.5 268t652.5 -268q270 -270 270 -654.5t-270 -654.5q-268 -270 -652 -270t-654.5 270t-270.5 654zM514 862h229q-2 12 7 37q25 90 77 137q66 59 156 60q100 0 156 -58q57 -51 57 -131q0 -57 -33 -102q-27 -33 -127 -123 q-111 -94 -145.5 -170t-34.5 -190v-3h225q2 59 17 93q18 41 94 110q154 135 199 211q45 84 45 166q0 160 -125 277q-127 121 -338 120q-199 0 -324 -118q-123 -121 -135 -279v-37zM856 -43h229v217h-229v-217z" />
<glyph unicode="@" horiz-adv-x="2404" d="M41 621q0 188 73.5 360t198.5 298t297 199.5t363 73.5q383 0 656.5 -273t273.5 -658t-272.5 -657.5t-657.5 -272.5q-387 0 -659.5 272.5t-272.5 657.5zM205 620.5q0 -317.5 224 -541.5t544 -224q317 0 541.5 224t224.5 541.5t-224.5 543t-541.5 225.5 q-319 0 -543.5 -225.5t-224.5 -543zM571 852h199q-2 6 4 35q20 74 70 119q51 51 135 51q86 0 135 -51q49 -47 49 -113q0 -47 -28 -88q-12 -25 -111 -109q-90 -76 -127 -145q-29 -59 -29 -168v-2h195q4 59 14 78q16 37 84 100q131 111 170 182q39 61 39 146q0 139 -108 239 q-102 104 -291 105q-178 0 -283 -103q-109 -102 -117 -241q-2 -17 0 -35zM868 66h199v188h-199v-188z" />
<glyph unicode="A" d="M41 606q0 268 132 496.5t359.5 361.5t497.5 133q410 0 701.5 -290.5t291.5 -700.5q0 -270 -133 -498.5t-362.5 -360.5t-497.5 -132q-270 0 -497.5 132t-359.5 360.5t-132 498.5zM279 606.5q0 -311.5 219 -532.5t532 -221q311 0 531.5 221t220.5 532.5t-220.5 531.5 t-531.5 220q-313 0 -532 -220t-219 -531.5zM928 578q-4 -61 51 -86l348 -168q16 -10 39 -11q57 0 84 56l10 18q7 18 8 37q0 17 -7 35q-13 37 -48 51l-283 135v393q0 39 -25.5 65.5t-66.5 26.5h-18q-39 0 -65.5 -26.5t-26.5 -65.5v-460z" />
<glyph unicode="B" d="M41 45v105h1677v-105h-313q16 -43 26.5 -69.5t30 -84t26.5 -96.5t11 -82q1 -10 1 -19q0 -29 -10 -46q-13 -23 -44 -23q-86 0 -250 420h-631q-164 -420 -252 -420q-37 0 -49 33q-7 20 -7 47q0 18 3 40q8 54 21.5 106.5t31 112t21.5 81.5h-293zM41 276v945h1677v-945h-1677 zM586 1325h147v229q0 31 -7 46.5t-14 17.5t-22 2h-20q-14 0 -21.5 -2t-14.5 -17.5t-7 -46.5zM1004 1325v229q0 29 10 45.5t22 18.5l11 2h45q4 0 10 -2t17 -18.5t11 -45.5l41 -229h-167z" />
<glyph unicode="C" d="M41 -215q0 -86 84 -86h1669q84 0 84 86v1315h-1837v-1315zM41 1202h1837v168q0 31 -25.5 58.5t-58.5 27.5h-311v230h-170v-230h-707v230h-170v-230h-311q-33 0 -58.5 -27.5t-25.5 -58.5v-168zM207 -154v320h315v-320h-315zM207 229v338h315v-338h-315zM207 631v301h315 v-301h-315zM606 -154v320h312v-320h-312zM606 229v338h312v-338h-312zM606 631v301h312v-301h-312zM1001 -154v320h312v-320h-312zM1001 229v338h312v-338h-312zM1001 631v301h312v-301h-312zM1399 -154v320h315v-320h-315zM1399 229v338h315v-338h-315zM1399 631v301h315 v-301h-315z" />
<glyph unicode="D" d="M41 600.5q0 276.5 134 511t365.5 371.5t503.5 137q283 0 520.5 -137t373 -371.5t135.5 -511t-135.5 -509t-372 -368t-521.5 -135.5q-272 0 -503.5 135.5t-365.5 368t-134 509zM262 600q0 -252 154 -477l1108 1112q-244 180 -480 180q-207 0 -388 -112.5t-287.5 -301 t-106.5 -401.5zM594 -35q223 -176 450 -176q334 0 568.5 242.5t234.5 568.5q0 256 -149 481z" />
<glyph unicode="E" />
<glyph unicode="F" d="M41 -240v1508h528l316 315q-2 10 -2 21q0 35 23.5 60.5t56 25.5t57 -26t24.5 -60q0 -10 -2 -21l314 -315h530v-1508h-1845zM250 -8h1417v1044h-1417v-1044zM319 131h1285q-2 14 -8.5 39t-30 86t-52 107.5t-81 85t-111.5 38.5q-72 0 -136.5 -32.5t-104.5 -73.5t-90 -74 t-95 -33q-74 0 -145.5 37t-143.5 37q-125 0 -266 -190zM463 717q0 -90 61.5 -151.5t151.5 -61.5q88 0 153.5 62.5t65.5 150.5t-65.5 151.5t-153.5 63.5t-150.5 -62.5t-62.5 -152.5zM686 1268h551l-254 256q-8 -2 -20.5 -2t-20.5 2z" />
<glyph unicode="G" d="M41 -203v426h1704v-426h-1704zM41 469v424h1802v-424h-1802zM41 1141h778v424h-778v-424z" />
<glyph unicode="H" d="M41 -29h117q12 258 105 422t259 217v195q-168 55 -261 222t-103 429h-117v182h1337v-182h-96q-10 -262 -104.5 -429t-259.5 -222v-195q164 -53 257 -218t105 -421h98v-182h-1337v182zM250 -29h106l164 191l207 244l207 -244l164 -191h92q-25 485 -330 561l-35 9v333l35 9 q309 78 330 573h-940q20 -496 328 -573l34 -9v-333l-34 -9q-303 -76 -328 -561zM535 1135h380l-96 -113l-94 -111l-96 111z" />
<glyph unicode="I" d="M41 -317v1878h1057l233 -236l234 -233v-496h-234v377h-352v352h-703v-1411h555l256 -231h-1046zM1038 33h195v348h405v-348h222l-412 -389z" />
<glyph unicode="J" d="M15 1124q1 -37 24.5 -120.5t73.5 -131.5q78 -76 184 -99q45 -10 87 -10q59 0 116 19l573 -573q-19 -60 -19 -120q0 -44 10 -88q24 -105 99 -181q49 -47 128 -70.5t134 -23.5h56q31 0 35 15t-19 38l-131 131q-23 23 -23 54.5t23 53.5l137 144q23 23 54.5 22.5t54.5 -22.5 l137 -137q23 -23 38 -16t15 38q1 15 2 37q0 11 -1 24q-1 38 -24.5 121.5t-70.5 128.5q-80 78 -186 104q-47 11 -92 11q-57 0 -111 -18l-574 573q19 56 20 116q0 43 -10 87q-24 106 -100 184q-111 94 -317 96q-31 0 -35 -18t19 -41l131 -131q23 -23 22.5 -54.5t-22.5 -54.5 l-138 -137q-23 -23 -54.5 -22.5t-53.5 22.5l-137 131q-20 23 -37 15.5t-17 -37.5q-1 -15 -1 -37v-23zM70 -131l174 268l84 -12l321 330l84 -84l-327 -324l10 -84l-269 -172zM997 993l406 406q47 45 111.5 45t109.5 -45l35 -43q48 -44 48 -104q0 -63 -48 -111l-404 -406 l-55 56l393 393q25 25 0.5 47t-47.5 0l-393 -393l-53 53l393 393q23 23 4 43q-8 8 -22.5 8t-24.5 -8l-393 -393z" />
<glyph unicode="K" d="M41 152v573l631 422l633 -422v-631l-633 -420zM213 633l459 -305l463 305l-463 307zM1249 1069v365l365 245l368 -245v-365l-368 -244zM1348 1384l266 -178l266 178l-266 177zM1487 -123v301l299 201l303 -201v-301l-303 -203zM1567 133l219 -147l221 147l-221 148z" />
<glyph unicode="L" d="M41 761.5q0 319.5 225 551.5q231 221 546.5 221t549.5 -221q195 -199 220 -475q4 -40 4 -80q0 -230 -128 -426l502 -502l-219 -219l-504 506q-190 -129 -424 -129q-322 0 -547 225q-225 229 -225 548.5zM332 762q0 -201 139 -342q143 -143 342 -144q195 0 342 144 q143 147 143 342q0 199 -143 342q-150 145 -342 145q-197 0 -342 -145q-139 -141 -139 -342z" />
<glyph unicode="M" d="M43 -158q-2 76 -2 140q0 267 35 317q8 14 23.5 28.5t39 28t44 23.5t55 24.5t56 23.5t64.5 24.5t64 23.5q152 68 184 88l6 146q-61 43 -75 180q-25 -6 -47.5 24.5t-28.5 63.5q0 39 10 76t39 30q-13 111 -13 149q0 9 1 13q10 92 94 165t211 73q123 0 206 -73t91 -165 q2 -12 1 -30q0 -47 -11 -132q14 4 24 -7t15.5 -31.5t6.5 -36t1 -31.5q0 -31 -23.5 -63.5t-50.5 -24.5q-8 -61 -25.5 -106.5t-31.5 -59.5l-15 -14v-146q37 -20 183 -88q14 -6 63 -23.5t66.5 -24.5t57.5 -22.5t57.5 -25.5t43 -24.5t41 -28t25.5 -27.5q30 -47 29 -286 q0 -76 -3 -171h-1511zM1397 854q0 39 9 74t34 28q-10 106 -10 142q8 88 82.5 153.5t187.5 65.5q117 0 191.5 -64.5t80.5 -154.5q2 -10 2 -24q0 -42 -14 -118q29 6 39 -30q6 -23 6 -46q0 -13 -2 -26q0 -23 -20.5 -50.5t-45.5 -21.5q-6 -55 -22.5 -96t-30.5 -55l-12 -15v-127 q35 -18 170 -77q47 -18 79.5 -41t42 -33t29 -43t23.5 -39q16 -25 22.5 -128t6.5 -194l-2 -92h-504q4 111 3 203q0 311 -42 408q-23 31 -140.5 49t-140.5 30l113 84q-49 43 -64 166q-23 -6 -44 20.5t-27 51.5z" />
<glyph unicode="N" d="M41 -14v1153q8 70 78 78h1917q70 -8 78 -78v-1153q0 -33 -19.5 -52.5t-38.5 -21.5l-20 -2h-1917q-35 0 -54.5 19.5t-21.5 37.5zM178 141h903v62q-4 53 -16 73q-10 14 -33.5 30t-45 25t-65.5 27.5t-65 26.5l-113 51v86q35 27 45 109q14 -4 28.5 15.5t14.5 35.5 q2 23 -4 47.5t-24 20.5q9 60 8 86q0 61 -55 110q-51 45 -125 45q-76 0 -126 -44q-55 -48 -55 -110q0 -23 7 -87q-16 4 -23.5 -22t-5.5 -46q2 -16 16.5 -35.5t28.5 -15.5q4 -37 15.5 -63.5t19.5 -35.5l8 -10v-86q-20 -14 -110 -51q-14 -6 -53.5 -21.5t-54.5 -22.5t-41 -20.5 t-39 -23.5t-21 -23q-20 -31 -20 -97q0 -17 1 -36zM1276 178q0 -16 11 -27.5t28 -11.5h536q16 0 27.5 11.5t11.5 27.5q0 39 -39 39h-536q-39 0 -39 -39zM1276 332q0 -16 11 -26.5t28 -10.5h536q16 0 27.5 10t11.5 27q0 39 -39 39h-536q-39 0 -39 -39zM1276 485q0 -16 11 -26 t28 -10h536q16 0 27.5 10t11.5 26q0 39 -39 39h-536q-39 0 -39 -39zM1276 639q0 -16 11 -26.5t28 -10.5h536q16 0 27.5 10.5t11.5 26.5q0 39 -39 39h-536q-39 0 -39 -39zM1276 795q0 -39 39 -39h536q39 0 39 39q0 16 -11 26t-28 10h-536q-16 0 -27.5 -10t-11.5 -26z M1276 948q0 -39 39 -39h536q39 0 39 39q0 16 -11 26.5t-28 10.5h-536q-16 0 -27.5 -10.5t-11.5 -26.5z" />
<glyph unicode="O" d="M43 1167q14 145 117 248q104 104 250 119q22 2 43 2q120 0 219 -68l-566 -563q-66 99 -65 218q0 21 2 44zM209 516q0 295 209 505t506 210q295 0 503.5 -210t208.5 -505q0 -291 -202 -500l180 -182q17 -16 17 -33t-17 -34l-17 -17q-14 -12 -33.5 -12t-33.5 12l-187 187 l-2 2q-186 -137 -417 -138q-213 0 -396 119l-170 -170q-14 -12 -33.5 -12t-33.5 12l-17 17q-16 17 -16 34t16 33l158 162q-223 209 -223 520zM446 516q0 -197 139.5 -337t338.5 -140q197 0 336 140t139 337t-139.5 336t-335.5 139q-199 0 -338.5 -139t-139.5 -336zM852 541 v297q0 23 16.5 40t41 17t42 -17.5t17.5 -39.5v-269l172 -137q18 -16 20 -40.5t-12 -43.5q-16 -23 -47 -22q-20 0 -35 14l-195 154q-24 20 -20 47zM1217 1468q99 68 218 68q21 0 44 -2q145 -14 250 -119q102 -102 116 -248q2 -23 2 -44q0 -119 -65 -218z" />
<glyph unicode="P" d="M41 471v408h600v600h410v-600h596v-408h-596v-600h-410v600h-600z" />
<glyph unicode="Q" d="M41 827q0 293 259 501t624 208q111 0 204 -20q160 -10 322 -117q168 -100 264 -250t96 -322q0 -283 -241.5 -488.5t-589.5 -221.5l-395 -344v399q-244 80 -393.5 257t-149.5 398z" />
<glyph unicode="R" d="M41 -98v1347q0 49 36 85t87 36v146h121v-146h125v146h120v-146h123v146h123v-146h123v146h123v-146h121v146h123v-146q51 0 87 -36t36 -85v-1347q0 -51 -36 -87t-87 -36h-1102q-51 0 -87 36t-36 87zM166 152q0 -43 31 -43h1038q10 0 19.5 13t9.5 30q0 18 -9.5 31.5 t-19.5 13.5h-1038q-31 0 -31 -45zM166 371q0 -45 31 -45h1038q10 0 19.5 13t9.5 32q0 16 -9.5 29.5t-19.5 13.5h-1038q-31 0 -31 -43zM166 590q0 -41 31 -41h1038q29 0 29 41q0 18 -9.5 31.5t-19.5 13.5h-1038q-31 0 -31 -45zM166 809q0 -43 31 -43h1038q10 0 19.5 12.5 t9.5 30.5q0 16 -9.5 29.5t-19.5 13.5h-1038q-31 0 -31 -43zM166 1030q0 -45 31 -45h1038q10 0 19.5 13.5t9.5 31.5q0 16 -9.5 28.5t-19.5 12.5h-1038q-31 0 -31 -41z" />
<glyph unicode="S" d="M41 37l639 659l-639 545v-1204zM125 -49h1837l-643 667l-238 -204q-20 -16 -38.5 -16.5t-34.5 16.5l-236 204zM139 1317l903 -778l910 778h-1813zM1409 696l639 -659v1204z" />
<glyph unicode="T" d="M41 -170v678h338v338h565v112h-338v680h789v-680h-338v-112h452v-338h336v-678h-788v678h338v225h-903v-225h337v-678h-788zM152 281h565v114h-565v-114zM717 1409h563v115h-563v-115zM1165 281h566v114h-566v-114z" />
<glyph unicode="U" d="M41 -168v1456q0 35 26.5 60.5t61.5 25.5h958v221q0 35 26 60.5t63 25.5h4q37 0 61.5 -25.5t24.5 -60.5v-1763q0 -35 -24.5 -60.5t-61.5 -25.5h-1051q-35 0 -61.5 25.5t-26.5 60.5zM184 784q0 -47 33 -78.5t78 -31.5h704q47 0 80 31.5t33 78.5v295q0 47 -32.5 79t-80.5 32 h-704q-45 0 -78 -32t-33 -79v-295zM221 14q0 -47 33 -82.5t78 -35.5t78.5 35.5t33.5 82.5t-33.5 80t-78.5 33t-78 -34t-33 -79zM221 358q0 -45 33 -76.5t78 -31.5q47 0 79.5 31.5t32.5 76.5q0 47 -33.5 80t-78.5 33t-78 -34t-33 -79zM543 14q0 -47 32.5 -82.5t77.5 -35.5 t78 35.5t33 82.5t-33 80t-78 33t-77.5 -34t-32.5 -79zM543 358q0 -45 32.5 -76.5t77.5 -31.5t78 31.5t33 76.5q0 47 -33 80t-78 33t-77.5 -34t-32.5 -79zM866 14q0 -47 33 -82.5t76 -35.5q47 0 79.5 35.5t32.5 82.5t-32.5 80t-79.5 33q-45 0 -77 -33t-32 -80zM866 358 q0 -45 32 -76.5t77 -31.5q47 0 79.5 31.5t32.5 76.5q0 47 -32.5 80t-79.5 33q-45 0 -77 -33t-32 -80z" />
<glyph unicode="V" d="M41 1020q0 231 164 395t395 164t395 -164t164 -395q0 -150 -74 -279l-485 -979l-483 979q-76 132 -76 279zM322 1020q0 -115 81.5 -197t198.5 -82q115 0 197 82t82 197q0 117 -82 198.5t-197 81.5q-117 0 -198.5 -81.5t-81.5 -198.5z" />
<glyph unicode="W" d="M41 651q0 348 236.5 602t584.5 287v166h-88v166h334v-166h-80v-166q242 -23 451 -170l180 170l182 -170l-182 -178q182 -248 182 -541q0 -375 -262 -637t-639 -262q-369 0 -634 263t-265 636zM270 651.5q0 -278.5 194.5 -472t475.5 -193.5q279 0 473.5 193.5t194.5 472 t-194.5 473t-473.5 194.5q-281 0 -475.5 -194.5t-194.5 -473zM774 651q0 90 88 144v342h166v-342q80 -59 80 -144q0 -94 -80 -141v-104h-166v104q-88 43 -88 141z" />
<glyph unicode="X" />
<glyph unicode="Y" d="M41 293v1153h752v115h229v-115h750v-1153h-750v-217l455 -359h-113l-342 236v-4h-229v4l-344 -236h-113l457 359v217h-752zM156 408h1501v780h-1501v-780zM223 573l111 322l182 -279l170 269l156 -254l121 373q6 27 34 18q10 -2 16.5 -14.5t4.5 -22.5l-160 -491l-172 280 l-170 -262l-166 254l-74 -211q-8 -29 -36 -20q-18 10 -18 28q0 4 1 10zM1174 532v115h114v-115h-114zM1176 901q0 61 44 106.5t105 45.5q63 0 107.5 -45t44.5 -107q0 -63 -44 -108t-108 -45q-61 0 -105 45t-44 108zM1403 532v115h115v-115h-115z" />
<glyph unicode="Z" d="M41 -209v840l401 698h199v-149h-98l-344 -566h409l150 -227h370l148 227h410l-343 566h-100v149h199l401 -698v-840h-1802zM569 993h224v580h299v-580h225l-377 -454z" />
<glyph unicode="[" d="M41 1303h1704l-852 -1311z" />
<glyph unicode="\" d="M41 -158h424v776h-424v-776zM711 -158v1800h424v-1800h-424zM1382 -158v1235h424v-1235h-424z" />
<glyph unicode="]" d="M41 -8l852 1311l852 -1311h-1704z" />
<glyph unicode="^" d="M41 -137h1415v94q0 72 -24 119q-12 18 -33 35.5t-60 37t-62.5 29.5t-83.5 35t-83 33l-178 76v145q51 41 67 168q23 -6 44.5 25.5t21.5 58.5q0 20 -1 34.5t-4 37t-12.5 33t-23.5 7.5q16 106 8 144q-6 88 -85 157.5t-193 69.5q-121 0 -202 -69.5t-87 -157.5q0 -51 18 -144 q-29 6 -40 -31.5t-11 -80.5q0 -27 25.5 -58.5t50.5 -25.5q8 -57 25.5 -99t31.5 -57l13 -12v-145q-37 -16 -183 -76q-20 -8 -60 -24.5t-61.5 -26t-54.5 -23.5t-52.5 -24.5t-41 -23.5t-35.5 -27.5t-22 -28.5q-35 -60 -27 -205zM1270 784h198l-153 -419l446 546h-184l270 385 h-205l185 332l-309 10l-238 -489h176z" />
<glyph unicode="_" d="M41 61q0 86 60.5 146.5t146.5 60.5q84 0 145.5 -60.5t61.5 -146.5q0 -84 -61.5 -144t-145.5 -60q-86 0 -146.5 60t-60.5 144zM41 594v311q285 0 526.5 -140t382 -382t140.5 -526h-312q0 305 -216 521t-521 216zM41 1184q360 0 665.5 -178.5t483.5 -483.5t178 -665h311 q0 332 -130 636t-349 523t-522 349t-637 130v-311z" />
<glyph unicode="`" horiz-adv-x="1441" />
<glyph unicode="a" d="M47 -217v797l250 901h1364l252 -922v-776h-1866zM201 559h155v219h1243v-219h152l-207 764h-1128zM432 559h199l151 -233h387l156 233h197v143h-1090v-143zM434 856v156h1088v-156h-78v78h-932v-78h-78zM512 1090v155h932v-155h-78v75h-776v-75h-78zM1350 16v-108h399 v108h-399z" />
<glyph unicode="b" d="M41 -68l2 -47h1729v115q0 78 -37 145q-14 23 -42 44.5t-72 43t-82 37t-100.5 41t-99.5 41.5l-215 92l-4 164q68 55 86 211q4 -1 8 -1q25 0 51 34q30 39 29 68q2 23 -1 53.5t-17 56t-37 19.5q14 143 14 188q-12 106 -107 190t-241 84q-143 0 -240.5 -85t-103.5 -189 q-1 -7 -1 -18q0 -46 13 -170q-6 2 -10 1q-24 0 -36 -41q-9 -34 -9 -64q0 -13 2 -25q0 -29 29 -68q25 -34 49 -34l8 1q8 -70 28.5 -122t37.5 -70l16 -19v-164q-41 -18 -219 -92q-25 -10 -72 -30.5t-72.5 -30.5t-63.5 -28.5t-61.5 -31t-50 -29t-43 -31.5t-26.5 -30 q-23 -35 -32 -98q-8 -52 -7 -93v-18z" />
<glyph unicode="c" d="M41 -184v1767h1397v-153h-1217v-1614h-180zM369 -338v1604h1273v-1233l-380 -371h-893zM512 -201h657v318h324v981h-981v-1299zM694 465h621v108h-621v-108zM694 731h621v117h-621v-117z" />
<glyph unicode="d" d="M33 616q0 383 274 641q170 180 406 246q118 33 235.5 33t236.5 -33q237 -66 404 -246q180 -168 246 -404q33 -118 33 -236.5t-33 -236.5q-66 -237 -246 -405q-168 -180 -404 -245q-118 -33 -236.5 -33t-235.5 33q-236 66 -406 245q-274 258 -274 641zM469 270l164 -161 l315 325l342 -325l162 161l-319 344l319 320l-162 162l-342 -318l-315 318l-164 -162l317 -320z" />
<glyph unicode="e" d="M41 -442l219 602l389 -381zM401 285l363 -391l1091 1091l-372 369zM1599 1470l238 250l395 -372l-258 -250z" />
<glyph unicode="f" d="M49 1217q-9 22 -9 42q0 36 28 69q43 52 128 86t155.5 53.5t137.5 29.5q154 45 525 45q348 0 524 -45q63 -12 127 -30.5t151 -52.5t133 -86q35 -40 35 -84q0 -14 -4 -27q12 -27 -366.5 -474.5t-378.5 -451.5v-242v-287q0 -29 -79 -47t-142 -18q-76 0 -147.5 18.5 t-71.5 46.5v287v242q0 4 -379 451.5t-367 474.5zM244 1235q0 -102 221 -173t549 -71q313 0 541.5 72t228.5 172q0 80 -229.5 139.5t-540.5 59.5q-324 0 -547 -58.5t-223 -140.5z" />
<glyph unicode="g" d="M41 541v135q0 39 30.5 68.5t69.5 29.5h70q35 0 83 54.5t75 101.5q10 20 10 45q0 14 -3 30q-9 44 -40 72l-49 47q-29 29 -29 71t29 69l96 96q27 29 69 29t70 -29l49 -49q33 -22 86 -23q10 0 21 1q68 5 113 22q33 10 56 47t23 78v67q0 41 30 72t71 31h133q41 0 70.5 -31 t29.5 -72v-67q0 -37 55.5 -86.5t100.5 -73.5q19 -9 42 -9q15 0 32 4q43 9 69 40l49 49q29 29 70 29t70 -29l96 -96q29 -27 29 -69t-29 -71l-49 -47q-22 -34 -23 -88q0 -10 1 -21q5 -69 22 -112q10 -33 48 -57.5t79 -24.5h65q41 0 72 -29.5t31 -70.5v-133q0 -39 -31 -69 t-72 -30h-65q-37 0 -88.5 -56t-71.5 -99q-10 -20 -11 -45q0 -14 4 -30q9 -44 40 -71l49 -49q29 -29 29 -70.5t-29 -68.5l-96 -96q-29 -29 -70 -29t-70 29l-49 49q-16 18 -63 20q-10 0 -21 1q-36 0 -67 -6q-41 -7 -68 -15q-33 -10 -56.5 -46t-23.5 -77v-70q0 -41 -29.5 -71.5 t-70.5 -30.5h-133q-41 0 -71 30.5t-30 71.5v70q0 35 -53 82t-102 76q-19 10 -43 10q-15 0 -32 -4q-44 -10 -71 -41l-49 -49q-29 -29 -69.5 -29t-69.5 29l-96 96q-29 27 -29 68.5t29 70.5l49 49q23 34 23 91q0 9 -1 18q-4 70 -20 110q-10 33 -47 57.5t-78 24.5h-70 q-39 0 -69.5 30t-30.5 69zM604 608q0 -180 127 -306t305 -126q180 0 307 126t127 306t-126.5 306t-307.5 126q-178 0 -305 -126t-127 -306z" />
<glyph unicode="h" d="M54 219q-13 61 -13 125q0 120 47 250q20 51 170 309q111 193 223 416q29 55 63 84t62.5 31t50 -5.5t33.5 -21.5q20 -25 23.5 -54.5t-8 -60t-25.5 -58.5t-33.5 -62.5t-28.5 -55.5q-111 -199 -174 -328q-14 -14 -24 -50q-4 -14 -4 -26q0 -20 10 -38q12 -14 27.5 -15.5 t34 12t34 28t39 38t39.5 35.5q211 174 471 390t469 390q85 69 138 70q32 0 53 -25q29 -37 33 -69q1 -6 1 -12q0 -28 -20 -57q-25 -36 -52.5 -61.5t-82.5 -70.5q-133 -111 -222.5 -185.5t-211.5 -176.5q-31 -23 -44.5 -37.5t-24.5 -31.5t-7 -33.5t18 -39.5q10 -16 21.5 -21 t27 3t25.5 16t32.5 30.5t35.5 33.5q59 49 473 391q14 12 39.5 34.5t44 38t46 39t46 36t46 29.5t44 21.5t40 8.5t36.5 -6q55 -59 54 -102q0 -13 -5 -25q-2 -23 -35 -59t-67.5 -63.5t-87 -67.5t-64.5 -50q-98 -82 -488 -403q-20 -16 -31.5 -26.5t-26.5 -25t-22.5 -23.5 t-12.5 -20.5t-4 -20.5t9 -18q23 -14 42.5 -18t40 7t33.5 20.5t39 33t38 33.5q186 154 352 293q16 12 41 33.5t39 34t34.5 27t35 18.5t31 6t31.5 -7.5t30 -27.5q16 -14 24.5 -27.5t7 -29t-4.5 -29.5t-17 -31.5t-25.5 -31t-34 -33t-37.5 -31.5l-41 -33q-26 -20 -40 -32 q-98 -82 -170 -142.5t-199 -165.5q-63 -52 -62 -81q0 -10 7 -17q16 -20 35.5 -24.5t44 9t41 26t47.5 40t41 35.5q4 4 10 8l4 4l2 2q168 139 221 164q27 12 50 12q41 0 71 -36q24 -28 24 -59q0 -40 -42 -85q-74 -78 -467 -387q-233 -184 -383 -303q-94 -78 -229 -106 q-94 -20 -186 -20q-40 0 -79 3q-299 47 -471 260q-131 158 -169 334z" />
<glyph unicode="i" d="M41 676q-2 -18 8 -43t29 -31q49 4 96 4q135 0 258 -35q-24 -71 -23 -152q0 -18 1 -36q6 -102 25.5 -182t47.5 -142l723 668q48 42 88 43q31 0 58 -27q16 -20 15 -43q0 -42 -48 -96l-723 -661q100 -55 239 -89q75 -18 145 -19q60 0 118 13q13 -101 13 -190.5t-13 -167.5 q8 -18 30 -31q17 -9 30 -9q4 0 7 1q51 8 72 70q39 143 39 301q0 40 -2 80q111 47 221 114q94 -174 125 -356q32 -33 62 -33q20 0 40 15q27 31 27 86q-20 172 -121 383q10 8 35 28.5t35 28.5q111 111 172 192q223 -141 411 -170h12q58 0 77 37q18 32 18 51.5t-18 26.5 q-205 49 -437.5 198.5t-439.5 375.5q-205 227 -334 468.5t-164 450.5q-8 25 -31 26q-18 0 -46 -16q-41 -33 -41 -82q10 -180 127 -428q-96 -68 -199 -155q-45 -41 -64 -68q-143 90 -366 160q-37 2 -55.5 -2t-38.5 -25q-25 -19 -25 -41q0 -26 33 -57q152 -37 346 -154 q-86 -113 -131 -213q-90 13 -178 13q-106 0 -209 -19q-58 -14 -76 -61zM1282 1432q80 29 201 47v10q0 43 36.5 110.5t123 135t192.5 80.5q16 -2 7 -17.5t-33.5 -43.5t-49 -68.5t-37.5 -92.5q-5 -22 -5 -46q0 -32 9 -68v-11q152 -31 259 -145q96 -102 116 -260q2 0 10 -6 q37 -13 77 -13q98 0 210 80q49 35 53 25v-8q-29 -152 -153 -240q-122 -86 -199 -86h-4t-6 6q-10 -61 -57 -198q-231 154 -420 362q-187 201 -330 447zM1665 1311q-9 -8 -8 -18q0 -12 11 -28q22 -30 69 -68t55 -46q10 -10 41 -56t55 -67q14 -11 26 -11q9 0 17 7q11 12 12 35 q0 26 -16 66q-29 75 -63 112q-39 35 -106 65q-39 18 -65 17q-17 0 -28 -8z" />
<glyph unicode="j" d="M51 348q47 -74 248 -122t465 -48t466 48t249 122q9 -31 9 -70.5t-9 -89.5q-6 -47 -69.5 -110.5t-154.5 -89.5q-215 -72 -491 -72q-272 0 -492 72q-90 27 -153.5 90t-65.5 110q-11 49 -11 91q0 37 9 69zM51 719q47 -74 248 -122t465 -48t466 48t249 122q9 -32 9 -72.5 t-9 -89.5q-6 -47 -69.5 -110.5t-154.5 -90.5q-221 -70 -476 -69h-14.5h-15.5q-252 0 -477 69q-90 27 -153.5 90.5t-65.5 110.5q-10 49 -10 91q0 38 8 71zM51 1087q47 -74 248 -121.5t465 -47.5t466 48t249 121q9 -31 9 -70.5t-9 -88.5q-6 -47 -69.5 -110.5t-154.5 -90.5 q-215 -72 -491 -72q-272 0 -492 72q-90 27 -153.5 90.5t-65.5 110.5q-11 49 -11 90q0 37 9 69zM53 1262q0 70 213 129t498 59q287 0 501 -59.5t214 -128.5q0 -14 -13 -31q-49 -61 -250.5 -109.5t-451.5 -48.5t-450.5 48t-247.5 110q-13 11 -13 31z" />
<glyph unicode="k" d="M41 625q0 377 266 644t643 267t643.5 -266t266.5 -645q0 -377 -266.5 -642.5t-643.5 -265.5q-248 0 -456.5 121t-330.5 331t-122 456zM236 625q0 -293 209.5 -503t504.5 -210t505 210t210 503q0 297 -210 506.5t-505 209.5t-504.5 -209.5t-209.5 -506.5zM432 625 q0 217 151.5 368.5t366.5 151.5t367.5 -151.5t152.5 -368.5q0 -213 -152.5 -366t-367.5 -153t-366.5 153t-151.5 366zM627 625q0 -133 95 -227.5t228 -94.5q135 0 229.5 94.5t94.5 227.5q0 135 -94.5 230t-229.5 95q-133 0 -228 -95t-95 -230zM821 625q0 -53 38 -90t91 -37 q55 0 92 36.5t37 90.5q0 55 -36.5 93t-92.5 38q-53 0 -91 -38t-38 -93z" />
<glyph unicode="l" d="M41 -215v950h141v344q0 227 163 393t390 166h47q223 0 388 -165.5t165 -393.5v-344h142v-950h-1436zM500 735h512v344q0 92 -65.5 161t-164.5 69h-47q-88 0 -161.5 -71t-73.5 -159v-344z" />
<glyph unicode="m" d="M41 -217v1337h1837v-1337q0 -43 -24.5 -63.5t-59.5 -20.5h-1673q-80 0 -80 84zM41 1202h1837v166q0 33 -26.5 59.5t-57.5 26.5h-313v229h-168v-229h-711v229h-164v-229h-317q-29 0 -54.5 -26.5t-25.5 -59.5v-166zM207 -154h1501v1127h-1501v-1127zM326 735l45 -174 l137 27v-606h221v827h-166zM922 606h385l-367 -624h250l366 643v174h-634v-193z" />
<glyph unicode="n" d="M47 308q-9 -39 -9 -80q0 -72 28 -152q43 -125 159 -242q94 -94 196.5 -140t188.5 -46t169 28.5t142.5 68.5t106.5 89l920 918q14 23 14 44q0 25 -20 48q-23 25 -48.5 29t-40.5 -5l-14 -8l-919 -917q-12 -12 -34 -29.5t-88.5 -52.5t-131.5 -46q-18 -3 -39 -4 q-52 0 -119 21q-92 29 -174 111q-84 84 -116 172q-26 72 -26 126q0 12 2 24q7 62 39.5 128t54 90.5t44.5 46.5l842 842q39 43 112 62q43 12 83 11q100 0 175 -75q51 -49 67 -110q8 -33 8 -64q0 -26 -6 -50q-13 -52 -31.5 -88t-37.5 -54l-770 -766q-27 -29 -74 -30h-3 q-45 0 -70 28q-27 27 -27 66q0 47 31 81l512 510q39 42 39 78q0 28 -23 53q-23 21 -49 21q-7 0 -15 -2q-36 -7 -67 -35l-510 -512q-45 -43 -69 -96q-16 -35 -17 -80q0 -23 4 -48q12 -76 82 -145q68 -68 144 -80q25 -4 47 -4q45 0 79 16q51 25 97 68l768 766q78 76 108 186 q30 62 30 126q0 136 -138 274q-84 84 -192 114q-49 14 -97 14q-58 0 -115 -20q-47 -16 -93 -42.5t-69 -45.5l-22 -18l-842 -842q-63 -63 -107 -143t-69 -188z" />
<glyph unicode="o" d="M41 -338v1972h1743v-1972h-246v424h-506v-424h-246v424h-526v-424h-219zM260 387h277v150h-277v-150zM260 684h277v154h-277v-154zM260 961h277v178h-277v-178zM260 1262h277v176h-277v-176zM762 387h270v150h-270v-150zM762 664h270v174h-270v-174zM762 961h270v178 h-270v-178zM762 1262h270v176h-270v-176zM1284 387h275v150h-275v-150zM1284 664h275v174h-275v-174zM1284 961h275v178h-275v-178zM1284 1262h275v176h-275v-176z" />
<glyph unicode="p" d="M41 20v1016h2216v-1016h-272v-188h-1659v188h-285zM399 1202v350h1506v-350h-1506zM426 -68h1462v480h-1462v-480zM1804 745h176v144h-176v-144z" />
<glyph unicode="q" d="M41 61h172v-299q0 -31 20.5 -52t49.5 -21h141v1714h-141q-29 0 -49.5 -21.5t-20.5 -52.5v-299h-172v-149h172v-670h-172v-150zM524 -311v1718h1331v-1718h-1331zM778 270h772v52q0 37 -16 65q-6 10 -18.5 19.5t-32 18.5t-36.5 16.5t-45 19.5t-44 18q-96 41 -98 41v74 q31 25 38 94q12 -2 25.5 14.5t13.5 30.5q2 18 -4 40t-20 18q6 55 6 83q-4 47 -47 85t-109 38q-63 0 -106 -38q-48 -42 -48 -92q0 -20 7 -76q-14 4 -20.5 -17.5t-4.5 -40.5q0 -14 13.5 -30.5t25.5 -14.5q8 -70 37 -94v-74q-18 -8 -98 -41q-156 -68 -174 -94q-10 -16 -15 -45 q-3 -19 -2 -35v-14v-21z" />
<glyph unicode="r" d="M41 606h242q0 -315 221 -530q256 -223 530 -223q252 0 512 223q25 20 49 47l-245 217h635v-606l-222 217q-10 -8 -17 -21.5t-14.5 -20.5t-17.5 -7q-291 -291 -680 -291q-403 0 -704 291q-289 294 -289 704zM66 852h630l-241 242q10 0 22 12t27 12q213 215 530 215 q297 0 512 -215q217 -227 217 -512h244q0 190 -74.5 377.5t-218.5 327.5q-289 295 -680 295q-408 0 -704 -295l-47 -47l-217 217v-629z" />
<glyph unicode="s" d="M45 1090q-5 40 -5 76q0 133 71 210q78 76 190 103q64 15 115 15q39 0 71 -9v117h1194v-117q33 8 73 8q54 0 120 -15q113 -26 188 -102q72 -76 72 -207q0 -38 -6 -79q-23 -111 -93.5 -198t-159.5 -136t-164 -76t-136 -35q-158 -397 -490 -397q-172 0 -293.5 108.5 t-191.5 288.5q-61 8 -137 35t-165 76t-159.5 136t-93.5 198zM237 1179q0 -27 11 -65q6 -47 34.5 -88t76 -70.5t84 -48t89.5 -39.5q-45 330 -45 422q-25 9 -56 9q-27 0 -59 -7q-69 -14 -106 -47q-10 0 -18 -14q-11 -19 -11 -52zM666 -219v-158h841v158q-12 0 -31.5 3 t-68.5 12t-87 23.5t-68.5 40t-30.5 56.5v195h-267v-195q0 -94 -243 -129zM674 1147l268 -180l-121 -295l262 178l269 -178l-121 295l268 180h-325l-91 289l-90 -289h-319zM1640 868q74 29 122 53.5t101.5 78t63.5 114.5q11 39 11 65q0 34 -12 52q-9 14 -21 14 q-33 33 -103 47q-32 7 -61 7q-33 0 -60 -9q0 -150 -41 -422z" />
<glyph unicode="t" d="M41 78q0 -88 60.5 -148.5t144.5 -60.5h147v1450h-147q-84 0 -144.5 -66.5t-60.5 -150.5v-1024zM569 -131h1164v1450h-279v166q0 41 -19.5 68.5t-58.5 27.5h-442q-41 0 -66.5 -28.5t-25.5 -67.5v-166h-273v-1450zM950 1319v151h389v-151h-389zM1919 -131v1450h156 q86 0 144 -65.5t58 -151.5v-1024q0 -88 -58 -148.5t-144 -60.5h-156z" />
<glyph unicode="u" d="M651 342l467 719l469 -719h-936z" />
<glyph unicode="v" d="M41 573q10 -16 29.5 -42.5t84 -105.5t135 -149.5t180.5 -157.5t221.5 -149.5t255 -105.5t286.5 -43q477 0 917 450q156 160 246 303q-10 14 -28.5 41t-81 102t-130 143.5t-174 152.5t-216 144.5t-251 101t-282.5 40.5q-143 0 -285.5 -39.5t-257.5 -103t-219 -141.5 t-181 -156t-134.5 -141.5t-85.5 -102.5zM711 573q0 197 153.5 347.5t368.5 150.5q193 0 344.5 -151.5t151.5 -346.5q0 -213 -149.5 -367.5t-346.5 -154.5q-217 0 -369.5 152.5t-152.5 369.5zM997 573q0 -113 61.5 -172t174.5 -59q92 0 160.5 62.5t68.5 168.5q0 90 -71.5 163 t-157.5 73q-106 0 -171 -70t-65 -166z" />
<glyph unicode="w" d="M41 582q0 324 217 551t526 227q324 0 541 -226.5t217 -551.5q0 -301 -217 -510t-541 -209q-309 0 -526 210t-217 509zM283 -123q195 -174 516 -174q305 0 499 174q0 -14 -2 -38.5t-11 -87t-22.5 -111t-40 -87t-61.5 -38.5h-362h-379q-43 0 -78 91t-47 181zM283 1325 q0 8 2 20.5t8 50.5t13 72.5t18.5 75.5t24.5 72t31.5 51.5t39.5 20.5h379h362q53 0 88 -90.5t41 -180.5l8 -92q-193 170 -499 170q-323 0 -516 -170zM680 582q2 -61 51 -84l258 -123q35 -14 61 -14q35 0 52 26l24 45q10 21 11 39q0 14 -7 27q-14 29 -47 43l-213 92v293 q0 51 -16 68.5t-61 17.5h-29q-43 0 -63.5 -17.5t-20.5 -68.5v-344zM1612 498v207h100q29 0 49.5 -25t20.5 -59v-54q0 -18 -22.5 -43.5t-47.5 -25.5h-100z" />
<glyph unicode="x" d="M41 219l444 447l-444 448l301 305l449 -446l448 446l305 -305l-444 -448l444 -447l-305 -305l-448 446l-449 -446z" />
<glyph unicode="y" d="M41 457l428 426v-293h961v-268h-961v-293zM700 842h963v-293l426 426l-426 426v-293h-963v-266z" />
<glyph unicode="z" d="M41 610l299 445l297 -445h-186q0 -248 159 -444q0 -2 2 -2q29 -33 43 -47l-157 -162q-10 12 -29.5 34.5t-28.5 33.5q0 2 -4 6q-6 8 -20.5 25.5t-20.5 25.5q0 2 -1 4t-1 4q-164 236 -164 522h-188zM504 1276q10 10 61 57q0 2 2 2t4 2q51 39 54 41l2 2q4 0 4 2 q236 164 522 164v189l444 -301l-444 -295v186q-244 0 -444 -160v-2l-50 -43zM719 -207l444 299v-188q254 0 447 164q0 2 2 2q4 4 20.5 19t26.5 24l156 -162q-53 -47 -64 -55q-4 -4 -6 -5q-14 -16 -51 -41l-2 -2q-4 -2 -6 -4q-236 -164 -523 -163v-187zM1663 1114l16 -18 q16 -18 25 -29l2 -2q160 -197 160 -444h-187l299 -443l295 443h-186q0 287 -162 522q-4 4 -4 8q-2 4 -41 53q-4 4 -4 6q-37 41 -57 62z" />
<glyph unicode="{" d="M41 647l1311 852v-1704z" />
<glyph unicode="}" d="M41 -205v1704l1311 -852z" />
<glyph unicode="&#xa1;" />
<glyph unicode="&#xa3;" horiz-adv-x="2408" />
<glyph unicode="&#xa7;" horiz-adv-x="2404" />
<glyph unicode="&#xa8;" horiz-adv-x="1441" />
<glyph unicode="&#xa9;" horiz-adv-x="2404" d="M41 598q0 379 268 647q266 266 644 266t646 -266q270 -268 270.5 -647t-270.5 -645q-268 -268 -646 -268t-644 268q-268 266 -268 645zM227 1004q6 -4 62.5 -43t89.5 -64q-45 -139 -60 -244q66 80 164 170q117 -76 205 -141q-14 49 -39.5 134t-36.5 122l215 147 q-166 -12 -249 -20q-10 33 -28 90t-24 78q-55 -74 -102 -191q-125 -18 -197 -38zM436 350q82 -129 172 -227q-16 -27 -56 -92.5t-60 -93.5q141 29 235 57q80 -84 176 -150q-2 14 -16 195q176 53 274 92q-119 23 -280 74q-12 137 -19 297q-31 -47 -89 -129t-79 -113 q-98 31 -258 90zM1120 657q96 2 275 2q57 -168 82 -264q35 113 67 264q109 0 176 -6q-66 82 -139 154q27 205 29 225q-90 -68 -156 -121q-104 86 -223 152q55 -102 106 -242q-104 -82 -217 -164z" />
<glyph unicode="&#xaa;" d="M47 -217v797l250 901h1364l252 -922v-776h-1866zM201 559h155v219h1243v-219h152l-207 764h-1128zM432 559h199l151 -233h387l156 233h197v143h-1090v-143zM434 856v156h1088v-156h-78v78h-932v-78h-78zM512 1090v155h932v-155h-78v75h-776v-75h-78zM1350 16v-108h399 v108h-399z" />
<glyph unicode="&#xab;" d="M41 567l575 580l-4 -346h858v-420h-858l4 -395zM973 104h796v1010h-796v217h1052v-1448h-1052v221z" />
<glyph unicode="&#xad;" d="M41 604q0 379 268 647q178 178 413.5 241.5t472.5 0.5t413 -242q270 -268 270 -647t-270 -649q-268 -270 -648 -270t-651 270q-268 270 -268 649zM383 496h1153v235h-1153v-235z" />
<glyph unicode="&#xae;" d="M43 -291l2 -47h1716v121q0 70 -28 141q-18 29 -63.5 58.5t-87.5 47t-123 49.5t-122 50l-215 88v170q61 53 82 205q29 -8 54.5 29.5t25.5 72.5q0 25 -1 41.5t-5 42t-15.5 38.5t-27.5 9q20 141 10 181q-8 106 -103 189t-239 83q-147 0 -243.5 -83t-102.5 -189 q0 -61 21 -181q-33 6 -46.5 -38t-13.5 -93q0 -35 30 -72.5t62 -29.5q8 -68 27.5 -119t34.5 -67l16 -19v-170q-39 -20 -209 -88q-33 -14 -102.5 -42t-104 -43t-82 -38.5t-74 -45t-40.5 -46.5q-20 -31 -27.5 -93.5t-5.5 -111.5zM162 825h264v127h-264v-127zM338 1378l188 -190 l92 90l-192 192zM850 1370h131v272h-131v-272zM1204 1278l103 -100l180 192l-90 92zM1397 813h264v139h-264v-139z" />
<glyph unicode="&#xaf;" horiz-adv-x="1441" />
<glyph unicode="&#xb2;" d="M41 637q0 379 268.5 648t647 269t647 -269t268.5 -648t-268.5 -647.5t-647 -268.5t-647 268.5t-268.5 647.5zM137 637q0 -338 240.5 -577.5t578.5 -239.5q340 0 580 239.5t240 577.5q0 340 -240 579.5t-580 239.5q-338 0 -578.5 -239.5t-240.5 -579.5zM575 489v502 q0 53 37 90t90 37q51 0 88 -37t37 -90v-125h373q51 0 88 -36.5t37 -88.5q0 -53 -37 -90t-88 -37h-373v-122q0 -53 37 -91q39 -35 88 -34h248q51 0 88 -37t37 -90q0 -51 -37 -88t-88 -37h-248q-156 0 -266.5 110t-110.5 264z" />
<glyph unicode="&#xb3;" d="M41 1006q0 211 147.5 359t358.5 148q143 0 270 -77q72 12 150 12q360 0 616 -256t256 -617q0 -90 -20 -188q53 -111 53 -225q0 -209 -148.5 -357.5t-357.5 -148.5q-127 0 -240 59q-94 -14 -159 -14q-362 0 -618.5 256t-256.5 618q0 92 19 175q-70 117 -70 256zM451 326 q0 -78 55 -158t145 -127q119 -66 312 -66q162 0 274 48q115 49 176.5 135t61.5 194q0 90 -35 154q-37 61 -99 104q-59 39 -149 68q-72 23 -195 51q-55 12 -120 29q-29 8 -70 26q-35 18 -51 41q-18 23 -19 52q0 49 56 81q53 39 149 39q100 0 148 -34q43 -35 77 -97 q27 -49 52 -69q25 -23 75 -23q53 0 90 37q35 39 35 84q0 49 -26 100q-29 51 -84 95q-59 47 -146 71q-82 27 -202 27q-152 0 -256 -39q-111 -39 -170 -119q-59 -78 -60 -176q0 -106 55 -174q59 -72 152 -111q92 -41 227 -67q86 -18 162 -41q61 -20 92 -51q35 -31 35 -82 q0 -63 -65 -111q-72 -45 -177 -45q-76 0 -127 23q-43 20 -73 57q-23 31 -49 88q-20 49 -52 76q-33 27 -77 26q-51 0 -91 -34q-36 -35 -36 -82z" />
<glyph unicode="&#xb4;" horiz-adv-x="1441" />
<glyph unicode="&#xb7;" />
<glyph unicode="&#xb8;" horiz-adv-x="1441" />
<glyph unicode="&#xb9;" d="M41 663.5q0 378.5 268.5 647t647 268.5t647 -268.5t268.5 -647t-268.5 -647t-647 -268.5t-647 268.5t-268.5 647zM139 663.5q0 -337.5 239.5 -577.5t577.5 -240t578 240t240 577.5t-240 577.5t-578 240t-577.5 -240t-239.5 -577.5zM313 866h486l157 459l158 -459h485 l-397 -293l148 -469l-394 289l-393 -289l148 469z" />
<glyph unicode="&#xba;" d="M41 -338v1972h1743v-1972h-246v424h-506v-424h-246v424h-526v-424h-219zM260 387h277v150h-277v-150zM260 684h277v154h-277v-154zM260 961h277v178h-277v-178zM260 1262h277v176h-277v-176zM762 387h270v150h-270v-150zM762 664h270v174h-270v-174zM762 961h270v178 h-270v-178zM762 1262h270v176h-270v-176zM1284 387h275v150h-275v-150zM1284 664h275v174h-275v-174zM1284 961h275v178h-275v-178zM1284 1262h275v176h-275v-176z" />
<glyph unicode="&#xbb;" d="M41 -117v1448h1053v-221h-797v-1010h797v-217h-1053zM594 414v420h860l-4 395l573 -582l-573 -579l4 346h-860z" />
<glyph unicode="&#xbf;" />
<glyph unicode="&#xc0;" d="M41 606q0 268 132 496.5t359.5 361.5t497.5 133q410 0 701.5 -290.5t291.5 -700.5q0 -270 -133 -498.5t-362.5 -360.5t-497.5 -132q-270 0 -497.5 132t-359.5 360.5t-132 498.5zM279 606.5q0 -311.5 219 -532.5t532 -221q311 0 531.5 221t220.5 532.5t-220.5 531.5 t-531.5 220q-313 0 -532 -220t-219 -531.5zM928 578q-4 -61 51 -86l348 -168q16 -10 39 -11q57 0 84 56l10 18q7 18 8 37q0 17 -7 35q-13 37 -48 51l-283 135v393q0 39 -25.5 65.5t-66.5 26.5h-18q-39 0 -65.5 -26.5t-26.5 -65.5v-460z" />
<glyph unicode="&#xc1;" d="M41 606q0 268 132 496.5t359.5 361.5t497.5 133q410 0 701.5 -290.5t291.5 -700.5q0 -270 -133 -498.5t-362.5 -360.5t-497.5 -132q-270 0 -497.5 132t-359.5 360.5t-132 498.5zM279 606.5q0 -311.5 219 -532.5t532 -221q311 0 531.5 221t220.5 532.5t-220.5 531.5 t-531.5 220q-313 0 -532 -220t-219 -531.5zM928 578q-4 -61 51 -86l348 -168q16 -10 39 -11q57 0 84 56l10 18q7 18 8 37q0 17 -7 35q-13 37 -48 51l-283 135v393q0 39 -25.5 65.5t-66.5 26.5h-18q-39 0 -65.5 -26.5t-26.5 -65.5v-460z" />
<glyph unicode="&#xc2;" d="M41 606q0 268 132 496.5t359.5 361.5t497.5 133q410 0 701.5 -290.5t291.5 -700.5q0 -270 -133 -498.5t-362.5 -360.5t-497.5 -132q-270 0 -497.5 132t-359.5 360.5t-132 498.5zM279 606.5q0 -311.5 219 -532.5t532 -221q311 0 531.5 221t220.5 532.5t-220.5 531.5 t-531.5 220q-313 0 -532 -220t-219 -531.5zM928 578q-4 -61 51 -86l348 -168q16 -10 39 -11q57 0 84 56l10 18q7 18 8 37q0 17 -7 35q-13 37 -48 51l-283 135v393q0 39 -25.5 65.5t-66.5 26.5h-18q-39 0 -65.5 -26.5t-26.5 -65.5v-460z" />
<glyph unicode="&#xc3;" d="M41 606q0 268 132 496.5t359.5 361.5t497.5 133q410 0 701.5 -290.5t291.5 -700.5q0 -270 -133 -498.5t-362.5 -360.5t-497.5 -132q-270 0 -497.5 132t-359.5 360.5t-132 498.5zM279 606.5q0 -311.5 219 -532.5t532 -221q311 0 531.5 221t220.5 532.5t-220.5 531.5 t-531.5 220q-313 0 -532 -220t-219 -531.5zM928 578q-4 -61 51 -86l348 -168q16 -10 39 -11q57 0 84 56l10 18q7 18 8 37q0 17 -7 35q-13 37 -48 51l-283 135v393q0 39 -25.5 65.5t-66.5 26.5h-18q-39 0 -65.5 -26.5t-26.5 -65.5v-460z" />
<glyph unicode="&#xc4;" d="M41 606q0 268 132 496.5t359.5 361.5t497.5 133q410 0 701.5 -290.5t291.5 -700.5q0 -270 -133 -498.5t-362.5 -360.5t-497.5 -132q-270 0 -497.5 132t-359.5 360.5t-132 498.5zM279 606.5q0 -311.5 219 -532.5t532 -221q311 0 531.5 221t220.5 532.5t-220.5 531.5 t-531.5 220q-313 0 -532 -220t-219 -531.5zM928 578q-4 -61 51 -86l348 -168q16 -10 39 -11q57 0 84 56l10 18q7 18 8 37q0 17 -7 35q-13 37 -48 51l-283 135v393q0 39 -25.5 65.5t-66.5 26.5h-18q-39 0 -65.5 -26.5t-26.5 -65.5v-460z" />
<glyph unicode="&#xc5;" d="M41 606q0 268 132 496.5t359.5 361.5t497.5 133q410 0 701.5 -290.5t291.5 -700.5q0 -270 -133 -498.5t-362.5 -360.5t-497.5 -132q-270 0 -497.5 132t-359.5 360.5t-132 498.5zM279 606.5q0 -311.5 219 -532.5t532 -221q311 0 531.5 221t220.5 532.5t-220.5 531.5 t-531.5 220q-313 0 -532 -220t-219 -531.5zM928 578q-4 -61 51 -86l348 -168q16 -10 39 -11q57 0 84 56l10 18q7 18 8 37q0 17 -7 35q-13 37 -48 51l-283 135v393q0 39 -25.5 65.5t-66.5 26.5h-18q-39 0 -65.5 -26.5t-26.5 -65.5v-460z" />
<glyph unicode="&#xc7;" d="M41 -215q0 -86 84 -86h1669q84 0 84 86v1315h-1837v-1315zM41 1202h1837v168q0 31 -25.5 58.5t-58.5 27.5h-311v230h-170v-230h-707v230h-170v-230h-311q-33 0 -58.5 -27.5t-25.5 -58.5v-168zM207 -154v320h315v-320h-315zM207 229v338h315v-338h-315zM207 631v301h315 v-301h-315zM606 -154v320h312v-320h-312zM606 229v338h312v-338h-312zM606 631v301h312v-301h-312zM1001 -154v320h312v-320h-312zM1001 229v338h312v-338h-312zM1001 631v301h312v-301h-312zM1399 -154v320h315v-320h-315zM1399 229v338h315v-338h-315zM1399 631v301h315 v-301h-315z" />
<glyph unicode="&#xcc;" d="M41 -317v1878h1057l233 -236l234 -233v-496h-234v377h-352v352h-703v-1411h555l256 -231h-1046zM1038 33h195v348h405v-348h222l-412 -389z" />
<glyph unicode="&#xcd;" d="M41 -317v1878h1057l233 -236l234 -233v-496h-234v377h-352v352h-703v-1411h555l256 -231h-1046zM1038 33h195v348h405v-348h222l-412 -389z" />
<glyph unicode="&#xce;" d="M41 -317v1878h1057l233 -236l234 -233v-496h-234v377h-352v352h-703v-1411h555l256 -231h-1046zM1038 33h195v348h405v-348h222l-412 -389z" />
<glyph unicode="&#xcf;" d="M41 -317v1878h1057l233 -236l234 -233v-496h-234v377h-352v352h-703v-1411h555l256 -231h-1046zM1038 33h195v348h405v-348h222l-412 -389z" />
<glyph unicode="&#xd1;" d="M41 -14v1153q8 70 78 78h1917q70 -8 78 -78v-1153q0 -33 -19.5 -52.5t-38.5 -21.5l-20 -2h-1917q-35 0 -54.5 19.5t-21.5 37.5zM178 141h903v62q-4 53 -16 73q-10 14 -33.5 30t-45 25t-65.5 27.5t-65 26.5l-113 51v86q35 27 45 109q14 -4 28.5 15.5t14.5 35.5 q2 23 -4 47.5t-24 20.5q9 60 8 86q0 61 -55 110q-51 45 -125 45q-76 0 -126 -44q-55 -48 -55 -110q0 -23 7 -87q-16 4 -23.5 -22t-5.5 -46q2 -16 16.5 -35.5t28.5 -15.5q4 -37 15.5 -63.5t19.5 -35.5l8 -10v-86q-20 -14 -110 -51q-14 -6 -53.5 -21.5t-54.5 -22.5t-41 -20.5 t-39 -23.5t-21 -23q-20 -31 -20 -97q0 -17 1 -36zM1276 178q0 -16 11 -27.5t28 -11.5h536q16 0 27.5 11.5t11.5 27.5q0 39 -39 39h-536q-39 0 -39 -39zM1276 332q0 -16 11 -26.5t28 -10.5h536q16 0 27.5 10t11.5 27q0 39 -39 39h-536q-39 0 -39 -39zM1276 485q0 -16 11 -26 t28 -10h536q16 0 27.5 10t11.5 26q0 39 -39 39h-536q-39 0 -39 -39zM1276 639q0 -16 11 -26.5t28 -10.5h536q16 0 27.5 10.5t11.5 26.5q0 39 -39 39h-536q-39 0 -39 -39zM1276 795q0 -39 39 -39h536q39 0 39 39q0 16 -11 26t-28 10h-536q-16 0 -27.5 -10t-11.5 -26z M1276 948q0 -39 39 -39h536q39 0 39 39q0 16 -11 26.5t-28 10.5h-536q-16 0 -27.5 -10.5t-11.5 -26.5z" />
<glyph unicode="&#xd2;" d="M43 1167q14 145 117 248q104 104 250 119q22 2 43 2q120 0 219 -68l-566 -563q-66 99 -65 218q0 21 2 44zM209 516q0 295 209 505t506 210q295 0 503.5 -210t208.5 -505q0 -291 -202 -500l180 -182q17 -16 17 -33t-17 -34l-17 -17q-14 -12 -33.5 -12t-33.5 12l-187 187 l-2 2q-186 -137 -417 -138q-213 0 -396 119l-170 -170q-14 -12 -33.5 -12t-33.5 12l-17 17q-16 17 -16 34t16 33l158 162q-223 209 -223 520zM446 516q0 -197 139.5 -337t338.5 -140q197 0 336 140t139 337t-139.5 336t-335.5 139q-199 0 -338.5 -139t-139.5 -336zM852 541 v297q0 23 16.5 40t41 17t42 -17.5t17.5 -39.5v-269l172 -137q18 -16 20 -40.5t-12 -43.5q-16 -23 -47 -22q-20 0 -35 14l-195 154q-24 20 -20 47zM1217 1468q99 68 218 68q21 0 44 -2q145 -14 250 -119q102 -102 116 -248q2 -23 2 -44q0 -119 -65 -218z" />
<glyph unicode="&#xd3;" d="M43 1167q14 145 117 248q104 104 250 119q22 2 43 2q120 0 219 -68l-566 -563q-66 99 -65 218q0 21 2 44zM209 516q0 295 209 505t506 210q295 0 503.5 -210t208.5 -505q0 -291 -202 -500l180 -182q17 -16 17 -33t-17 -34l-17 -17q-14 -12 -33.5 -12t-33.5 12l-187 187 l-2 2q-186 -137 -417 -138q-213 0 -396 119l-170 -170q-14 -12 -33.5 -12t-33.5 12l-17 17q-16 17 -16 34t16 33l158 162q-223 209 -223 520zM446 516q0 -197 139.5 -337t338.5 -140q197 0 336 140t139 337t-139.5 336t-335.5 139q-199 0 -338.5 -139t-139.5 -336zM852 541 v297q0 23 16.5 40t41 17t42 -17.5t17.5 -39.5v-269l172 -137q18 -16 20 -40.5t-12 -43.5q-16 -23 -47 -22q-20 0 -35 14l-195 154q-24 20 -20 47zM1217 1468q99 68 218 68q21 0 44 -2q145 -14 250 -119q102 -102 116 -248q2 -23 2 -44q0 -119 -65 -218z" />
<glyph unicode="&#xd4;" d="M43 1167q14 145 117 248q104 104 250 119q22 2 43 2q120 0 219 -68l-566 -563q-66 99 -65 218q0 21 2 44zM209 516q0 295 209 505t506 210q295 0 503.5 -210t208.5 -505q0 -291 -202 -500l180 -182q17 -16 17 -33t-17 -34l-17 -17q-14 -12 -33.5 -12t-33.5 12l-187 187 l-2 2q-186 -137 -417 -138q-213 0 -396 119l-170 -170q-14 -12 -33.5 -12t-33.5 12l-17 17q-16 17 -16 34t16 33l158 162q-223 209 -223 520zM446 516q0 -197 139.5 -337t338.5 -140q197 0 336 140t139 337t-139.5 336t-335.5 139q-199 0 -338.5 -139t-139.5 -336zM852 541 v297q0 23 16.5 40t41 17t42 -17.5t17.5 -39.5v-269l172 -137q18 -16 20 -40.5t-12 -43.5q-16 -23 -47 -22q-20 0 -35 14l-195 154q-24 20 -20 47zM1217 1468q99 68 218 68q21 0 44 -2q145 -14 250 -119q102 -102 116 -248q2 -23 2 -44q0 -119 -65 -218z" />
<glyph unicode="&#xd5;" d="M43 1167q14 145 117 248q104 104 250 119q22 2 43 2q120 0 219 -68l-566 -563q-66 99 -65 218q0 21 2 44zM209 516q0 295 209 505t506 210q295 0 503.5 -210t208.5 -505q0 -291 -202 -500l180 -182q17 -16 17 -33t-17 -34l-17 -17q-14 -12 -33.5 -12t-33.5 12l-187 187 l-2 2q-186 -137 -417 -138q-213 0 -396 119l-170 -170q-14 -12 -33.5 -12t-33.5 12l-17 17q-16 17 -16 34t16 33l158 162q-223 209 -223 520zM446 516q0 -197 139.5 -337t338.5 -140q197 0 336 140t139 337t-139.5 336t-335.5 139q-199 0 -338.5 -139t-139.5 -336zM852 541 v297q0 23 16.5 40t41 17t42 -17.5t17.5 -39.5v-269l172 -137q18 -16 20 -40.5t-12 -43.5q-16 -23 -47 -22q-20 0 -35 14l-195 154q-24 20 -20 47zM1217 1468q99 68 218 68q21 0 44 -2q145 -14 250 -119q102 -102 116 -248q2 -23 2 -44q0 -119 -65 -218z" />
<glyph unicode="&#xd6;" d="M43 1167q14 145 117 248q104 104 250 119q22 2 43 2q120 0 219 -68l-566 -563q-66 99 -65 218q0 21 2 44zM209 516q0 295 209 505t506 210q295 0 503.5 -210t208.5 -505q0 -291 -202 -500l180 -182q17 -16 17 -33t-17 -34l-17 -17q-14 -12 -33.5 -12t-33.5 12l-187 187 l-2 2q-186 -137 -417 -138q-213 0 -396 119l-170 -170q-14 -12 -33.5 -12t-33.5 12l-17 17q-16 17 -16 34t16 33l158 162q-223 209 -223 520zM446 516q0 -197 139.5 -337t338.5 -140q197 0 336 140t139 337t-139.5 336t-335.5 139q-199 0 -338.5 -139t-139.5 -336zM852 541 v297q0 23 16.5 40t41 17t42 -17.5t17.5 -39.5v-269l172 -137q18 -16 20 -40.5t-12 -43.5q-16 -23 -47 -22q-20 0 -35 14l-195 154q-24 20 -20 47zM1217 1468q99 68 218 68q21 0 44 -2q145 -14 250 -119q102 -102 116 -248q2 -23 2 -44q0 -119 -65 -218z" />
<glyph unicode="&#xd9;" d="M41 -168v1456q0 35 26.5 60.5t61.5 25.5h958v221q0 35 26 60.5t63 25.5h4q37 0 61.5 -25.5t24.5 -60.5v-1763q0 -35 -24.5 -60.5t-61.5 -25.5h-1051q-35 0 -61.5 25.5t-26.5 60.5zM184 784q0 -47 33 -78.5t78 -31.5h704q47 0 80 31.5t33 78.5v295q0 47 -32.5 79t-80.5 32 h-704q-45 0 -78 -32t-33 -79v-295zM221 14q0 -47 33 -82.5t78 -35.5t78.5 35.5t33.5 82.5t-33.5 80t-78.5 33t-78 -34t-33 -79zM221 358q0 -45 33 -76.5t78 -31.5q47 0 79.5 31.5t32.5 76.5q0 47 -33.5 80t-78.5 33t-78 -34t-33 -79zM543 14q0 -47 32.5 -82.5t77.5 -35.5 t78 35.5t33 82.5t-33 80t-78 33t-77.5 -34t-32.5 -79zM543 358q0 -45 32.5 -76.5t77.5 -31.5t78 31.5t33 76.5q0 47 -33 80t-78 33t-77.5 -34t-32.5 -79zM866 14q0 -47 33 -82.5t76 -35.5q47 0 79.5 35.5t32.5 82.5t-32.5 80t-79.5 33q-45 0 -77 -33t-32 -80zM866 358 q0 -45 32 -76.5t77 -31.5q47 0 79.5 31.5t32.5 76.5q0 47 -32.5 80t-79.5 33q-45 0 -77 -33t-32 -80z" />
<glyph unicode="&#xda;" d="M41 -168v1456q0 35 26.5 60.5t61.5 25.5h958v221q0 35 26 60.5t63 25.5h4q37 0 61.5 -25.5t24.5 -60.5v-1763q0 -35 -24.5 -60.5t-61.5 -25.5h-1051q-35 0 -61.5 25.5t-26.5 60.5zM184 784q0 -47 33 -78.5t78 -31.5h704q47 0 80 31.5t33 78.5v295q0 47 -32.5 79t-80.5 32 h-704q-45 0 -78 -32t-33 -79v-295zM221 14q0 -47 33 -82.5t78 -35.5t78.5 35.5t33.5 82.5t-33.5 80t-78.5 33t-78 -34t-33 -79zM221 358q0 -45 33 -76.5t78 -31.5q47 0 79.5 31.5t32.5 76.5q0 47 -33.5 80t-78.5 33t-78 -34t-33 -79zM543 14q0 -47 32.5 -82.5t77.5 -35.5 t78 35.5t33 82.5t-33 80t-78 33t-77.5 -34t-32.5 -79zM543 358q0 -45 32.5 -76.5t77.5 -31.5t78 31.5t33 76.5q0 47 -33 80t-78 33t-77.5 -34t-32.5 -79zM866 14q0 -47 33 -82.5t76 -35.5q47 0 79.5 35.5t32.5 82.5t-32.5 80t-79.5 33q-45 0 -77 -33t-32 -80zM866 358 q0 -45 32 -76.5t77 -31.5q47 0 79.5 31.5t32.5 76.5q0 47 -32.5 80t-79.5 33q-45 0 -77 -33t-32 -80z" />
<glyph unicode="&#xdb;" d="M41 -168v1456q0 35 26.5 60.5t61.5 25.5h958v221q0 35 26 60.5t63 25.5h4q37 0 61.5 -25.5t24.5 -60.5v-1763q0 -35 -24.5 -60.5t-61.5 -25.5h-1051q-35 0 -61.5 25.5t-26.5 60.5zM184 784q0 -47 33 -78.5t78 -31.5h704q47 0 80 31.5t33 78.5v295q0 47 -32.5 79t-80.5 32 h-704q-45 0 -78 -32t-33 -79v-295zM221 14q0 -47 33 -82.5t78 -35.5t78.5 35.5t33.5 82.5t-33.5 80t-78.5 33t-78 -34t-33 -79zM221 358q0 -45 33 -76.5t78 -31.5q47 0 79.5 31.5t32.5 76.5q0 47 -33.5 80t-78.5 33t-78 -34t-33 -79zM543 14q0 -47 32.5 -82.5t77.5 -35.5 t78 35.5t33 82.5t-33 80t-78 33t-77.5 -34t-32.5 -79zM543 358q0 -45 32.5 -76.5t77.5 -31.5t78 31.5t33 76.5q0 47 -33 80t-78 33t-77.5 -34t-32.5 -79zM866 14q0 -47 33 -82.5t76 -35.5q47 0 79.5 35.5t32.5 82.5t-32.5 80t-79.5 33q-45 0 -77 -33t-32 -80zM866 358 q0 -45 32 -76.5t77 -31.5q47 0 79.5 31.5t32.5 76.5q0 47 -32.5 80t-79.5 33q-45 0 -77 -33t-32 -80z" />
<glyph unicode="&#xdc;" d="M41 -168v1456q0 35 26.5 60.5t61.5 25.5h958v221q0 35 26 60.5t63 25.5h4q37 0 61.5 -25.5t24.5 -60.5v-1763q0 -35 -24.5 -60.5t-61.5 -25.5h-1051q-35 0 -61.5 25.5t-26.5 60.5zM184 784q0 -47 33 -78.5t78 -31.5h704q47 0 80 31.5t33 78.5v295q0 47 -32.5 79t-80.5 32 h-704q-45 0 -78 -32t-33 -79v-295zM221 14q0 -47 33 -82.5t78 -35.5t78.5 35.5t33.5 82.5t-33.5 80t-78.5 33t-78 -34t-33 -79zM221 358q0 -45 33 -76.5t78 -31.5q47 0 79.5 31.5t32.5 76.5q0 47 -33.5 80t-78.5 33t-78 -34t-33 -79zM543 14q0 -47 32.5 -82.5t77.5 -35.5 t78 35.5t33 82.5t-33 80t-78 33t-77.5 -34t-32.5 -79zM543 358q0 -45 32.5 -76.5t77.5 -31.5t78 31.5t33 76.5q0 47 -33 80t-78 33t-77.5 -34t-32.5 -79zM866 14q0 -47 33 -82.5t76 -35.5q47 0 79.5 35.5t32.5 82.5t-32.5 80t-79.5 33q-45 0 -77 -33t-32 -80zM866 358 q0 -45 32 -76.5t77 -31.5q47 0 79.5 31.5t32.5 76.5q0 47 -32.5 80t-79.5 33q-45 0 -77 -33t-32 -80z" />
<glyph unicode="&#xdd;" d="M41 293v1153h752v115h229v-115h750v-1153h-750v-217l455 -359h-113l-342 236v-4h-229v4l-344 -236h-113l457 359v217h-752zM156 408h1501v780h-1501v-780zM223 573l111 322l182 -279l170 269l156 -254l121 373q6 27 34 18q10 -2 16.5 -14.5t4.5 -22.5l-160 -491l-172 280 l-170 -262l-166 254l-74 -211q-8 -29 -36 -20q-18 10 -18 28q0 4 1 10zM1174 532v115h114v-115h-114zM1176 901q0 61 44 106.5t105 45.5q63 0 107.5 -45t44.5 -107q0 -63 -44 -108t-108 -45q-61 0 -105 45t-44 108zM1403 532v115h115v-115h-115z" />
<glyph unicode="&#xe0;" d="M41 -322v1860h156v-156q6 -6 18 -16t56 -38t93.5 -48t130 -36.5t167.5 -16.5q137 0 331.5 -19.5t319.5 -38.5l125 -18l-236 -389l236 -387q-467 78 -776 78q-86 0 -166 15t-132.5 37.5t-92.5 46t-58 38.5l-16 16v-928h-156z" />
<glyph unicode="&#xe1;" d="M47 -217v797l250 901h1364l252 -922v-776h-1866zM201 559h155v219h1243v-219h152l-207 764h-1128zM432 559h199l151 -233h387l156 233h197v143h-1090v-143zM434 856v156h1088v-156h-78v78h-932v-78h-78zM512 1090v155h932v-155h-78v75h-776v-75h-78zM1350 16v-108h399 v108h-399z" />
<glyph unicode="&#xe2;" d="M47 -217v797l250 901h1364l252 -922v-776h-1866zM201 559h155v219h1243v-219h152l-207 764h-1128zM432 559h199l151 -233h387l156 233h197v143h-1090v-143zM434 856v156h1088v-156h-78v78h-932v-78h-78zM512 1090v155h932v-155h-78v75h-776v-75h-78zM1350 16v-108h399 v108h-399z" />
<glyph unicode="&#xe3;" d="M47 -217v797l250 901h1364l252 -922v-776h-1866zM201 559h155v219h1243v-219h152l-207 764h-1128zM432 559h199l151 -233h387l156 233h197v143h-1090v-143zM434 856v156h1088v-156h-78v78h-932v-78h-78zM512 1090v155h932v-155h-78v75h-776v-75h-78zM1350 16v-108h399 v108h-399z" />
<glyph unicode="&#xe4;" d="M47 -217v797l250 901h1364l252 -922v-776h-1866zM201 559h155v219h1243v-219h152l-207 764h-1128zM432 559h199l151 -233h387l156 233h197v143h-1090v-143zM434 856v156h1088v-156h-78v78h-932v-78h-78zM512 1090v155h932v-155h-78v75h-776v-75h-78zM1350 16v-108h399 v108h-399z" />
<glyph unicode="&#xe5;" d="M47 -217v797l250 901h1364l252 -922v-776h-1866zM201 559h155v219h1243v-219h152l-207 764h-1128zM432 559h199l151 -233h387l156 233h197v143h-1090v-143zM434 856v156h1088v-156h-78v78h-932v-78h-78zM512 1090v155h932v-155h-78v75h-776v-75h-78zM1350 16v-108h399 v108h-399z" />
<glyph unicode="&#xe7;" d="M41 -184v1767h1397v-153h-1217v-1614h-180zM369 -338v1604h1273v-1233l-380 -371h-893zM512 -201h657v318h324v981h-981v-1299zM694 465h621v108h-621v-108zM694 731h621v117h-621v-117z" />
<glyph unicode="&#xe8;" d="M41 -401l195 577q164 0 276.5 -111.5t112.5 -271.5q-8 2 -153.5 -46t-287.5 -99zM313 256l1063 1057q20 0 59.5 -9.5t57.5 -9.5l-1065 -1056q-37 18 -115 18zM514 188l1061 1061q41 -29 55.5 -43t44.5 -59l-1061 -1059q-23 33 -31 43t-23 23.5t-46 33.5zM659 4l1061 1063 q39 -74 39 -133q0 6 -261 -249t-526 -521t-274 -289q0 55 -39 129zM1468 1393l195 213q145 0 266 -121t121 -266l-215 -191q0 129 -118 247t-249 118z" />
<glyph unicode="&#xe9;" d="M41 -330v1911h1071l158 -158l-176 -182l-101 100h-714v-1429h1075v635l237 239v-1116h-1550zM475 131l178 436l260 -256zM764 698l276 -282l748 747l-277 275zM1608 1542l159 158l281 -277l-162 -139z" />
<glyph unicode="&#xea;" d="M41 -442l219 602l389 -381zM401 285l363 -391l1091 1091l-372 369zM1599 1470l238 250l395 -372l-258 -250z" />
<glyph unicode="&#xeb;" d="M41 -442l219 602l389 -381zM401 285l363 -391l1091 1091l-372 369zM1599 1470l238 250l395 -372l-258 -250z" />
<glyph unicode="&#xec;" d="M41 827q0 293 259 501t624 208q111 0 204 -20q160 -10 322 -117q168 -100 264 -250t96 -322q0 -283 -241.5 -488.5t-589.5 -221.5l-395 -344v399q-244 80 -393.5 257t-149.5 398zM379 774q0 -57 40 -97t95 -40q57 0 97 40t40 97t-40 96t-97 39q-55 0 -95 -39t-40 -96z M788 774q0 -57 40 -97t96 -40q57 0 97 40t40 97t-39 96t-98 39q-55 0 -95.5 -39t-40.5 -96zM1198 774q0 -57 39 -97t96.5 -40t98.5 40t41 97t-40 96t-100 39q-57 0 -96 -39t-39 -96z" />
<glyph unicode="&#xed;" d="M41 676q-2 -18 8 -43t29 -31q49 4 96 4q135 0 258 -35q-24 -71 -23 -152q0 -18 1 -36q6 -102 25.5 -182t47.5 -142l723 668q48 42 88 43q31 0 58 -27q16 -20 15 -43q0 -42 -48 -96l-723 -661q100 -55 239 -89q75 -18 145 -19q60 0 118 13q13 -101 13 -190.5t-13 -167.5 q8 -18 30 -31q17 -9 30 -9q4 0 7 1q51 8 72 70q39 143 39 301q0 40 -2 80q111 47 221 114q94 -174 125 -356q32 -33 62 -33q20 0 40 15q27 31 27 86q-20 172 -121 383q10 8 35 28.5t35 28.5q111 111 172 192q223 -141 411 -170h12q58 0 77 37q18 32 18 51.5t-18 26.5 q-205 49 -437.5 198.5t-439.5 375.5q-205 227 -334 468.5t-164 450.5q-8 25 -31 26q-18 0 -46 -16q-41 -33 -41 -82q10 -180 127 -428q-96 -68 -199 -155q-45 -41 -64 -68q-143 90 -366 160q-37 2 -55.5 -2t-38.5 -25q-25 -19 -25 -41q0 -26 33 -57q152 -37 346 -154 q-86 -113 -131 -213q-90 13 -178 13q-106 0 -209 -19q-58 -14 -76 -61zM1282 1432q80 29 201 47v10q0 43 36.5 110.5t123 135t192.5 80.5q16 -2 7 -17.5t-33.5 -43.5t-49 -68.5t-37.5 -92.5q-5 -22 -5 -46q0 -32 9 -68v-11q152 -31 259 -145q96 -102 116 -260q2 0 10 -6 q37 -13 77 -13q98 0 210 80q49 35 53 25v-8q-29 -152 -153 -240q-122 -86 -199 -86h-4t-6 6q-10 -61 -57 -198q-231 154 -420 362q-187 201 -330 447zM1665 1311q-9 -8 -8 -18q0 -12 11 -28q22 -30 69 -68t55 -46q10 -10 41 -56t55 -67q14 -11 26 -11q9 0 17 7q11 12 12 35 q0 26 -16 66q-29 75 -63 112q-39 35 -106 65q-39 18 -65 17q-17 0 -28 -8z" />
<glyph unicode="&#xee;" d="M41 676q-2 -18 8 -43t29 -31q49 4 96 4q135 0 258 -35q-24 -71 -23 -152q0 -18 1 -36q6 -102 25.5 -182t47.5 -142l723 668q48 42 88 43q31 0 58 -27q16 -20 15 -43q0 -42 -48 -96l-723 -661q100 -55 239 -89q75 -18 145 -19q60 0 118 13q13 -101 13 -190.5t-13 -167.5 q8 -18 30 -31q17 -9 30 -9q4 0 7 1q51 8 72 70q39 143 39 301q0 40 -2 80q111 47 221 114q94 -174 125 -356q32 -33 62 -33q20 0 40 15q27 31 27 86q-20 172 -121 383q10 8 35 28.5t35 28.5q111 111 172 192q223 -141 411 -170h12q58 0 77 37q18 32 18 51.5t-18 26.5 q-205 49 -437.5 198.5t-439.5 375.5q-205 227 -334 468.5t-164 450.5q-8 25 -31 26q-18 0 -46 -16q-41 -33 -41 -82q10 -180 127 -428q-96 -68 -199 -155q-45 -41 -64 -68q-143 90 -366 160q-37 2 -55.5 -2t-38.5 -25q-25 -19 -25 -41q0 -26 33 -57q152 -37 346 -154 q-86 -113 -131 -213q-90 13 -178 13q-106 0 -209 -19q-58 -14 -76 -61zM1282 1432q80 29 201 47v10q0 43 36.5 110.5t123 135t192.5 80.5q16 -2 7 -17.5t-33.5 -43.5t-49 -68.5t-37.5 -92.5q-5 -22 -5 -46q0 -32 9 -68v-11q152 -31 259 -145q96 -102 116 -260q2 0 10 -6 q37 -13 77 -13q98 0 210 80q49 35 53 25v-8q-29 -152 -153 -240q-122 -86 -199 -86h-4t-6 6q-10 -61 -57 -198q-231 154 -420 362q-187 201 -330 447zM1665 1311q-9 -8 -8 -18q0 -12 11 -28q22 -30 69 -68t55 -46q10 -10 41 -56t55 -67q14 -11 26 -11q9 0 17 7q11 12 12 35 q0 26 -16 66q-29 75 -63 112q-39 35 -106 65q-39 18 -65 17q-17 0 -28 -8z" />
<glyph unicode="&#xef;" d="M41 676q-2 -18 8 -43t29 -31q49 4 96 4q135 0 258 -35q-24 -71 -23 -152q0 -18 1 -36q6 -102 25.5 -182t47.5 -142l723 668q48 42 88 43q31 0 58 -27q16 -20 15 -43q0 -42 -48 -96l-723 -661q100 -55 239 -89q75 -18 145 -19q60 0 118 13q13 -101 13 -190.5t-13 -167.5 q8 -18 30 -31q17 -9 30 -9q4 0 7 1q51 8 72 70q39 143 39 301q0 40 -2 80q111 47 221 114q94 -174 125 -356q32 -33 62 -33q20 0 40 15q27 31 27 86q-20 172 -121 383q10 8 35 28.5t35 28.5q111 111 172 192q223 -141 411 -170h12q58 0 77 37q18 32 18 51.5t-18 26.5 q-205 49 -437.5 198.5t-439.5 375.5q-205 227 -334 468.5t-164 450.5q-8 25 -31 26q-18 0 -46 -16q-41 -33 -41 -82q10 -180 127 -428q-96 -68 -199 -155q-45 -41 -64 -68q-143 90 -366 160q-37 2 -55.5 -2t-38.5 -25q-25 -19 -25 -41q0 -26 33 -57q152 -37 346 -154 q-86 -113 -131 -213q-90 13 -178 13q-106 0 -209 -19q-58 -14 -76 -61zM1282 1432q80 29 201 47v10q0 43 36.5 110.5t123 135t192.5 80.5q16 -2 7 -17.5t-33.5 -43.5t-49 -68.5t-37.5 -92.5q-5 -22 -5 -46q0 -32 9 -68v-11q152 -31 259 -145q96 -102 116 -260q2 0 10 -6 q37 -13 77 -13q98 0 210 80q49 35 53 25v-8q-29 -152 -153 -240q-122 -86 -199 -86h-4t-6 6q-10 -61 -57 -198q-231 154 -420 362q-187 201 -330 447zM1665 1311q-9 -8 -8 -18q0 -12 11 -28q22 -30 69 -68t55 -46q10 -10 41 -56t55 -67q14 -11 26 -11q9 0 17 7q11 12 12 35 q0 26 -16 66q-29 75 -63 112q-39 35 -106 65q-39 18 -65 17q-17 0 -28 -8z" />
<glyph unicode="&#xf1;" d="M47 308q-9 -39 -9 -80q0 -72 28 -152q43 -125 159 -242q94 -94 196.5 -140t188.5 -46t169 28.5t142.5 68.5t106.5 89l920 918q14 23 14 44q0 25 -20 48q-23 25 -48.5 29t-40.5 -5l-14 -8l-919 -917q-12 -12 -34 -29.5t-88.5 -52.5t-131.5 -46q-18 -3 -39 -4 q-52 0 -119 21q-92 29 -174 111q-84 84 -116 172q-26 72 -26 126q0 12 2 24q7 62 39.5 128t54 90.5t44.5 46.5l842 842q39 43 112 62q43 12 83 11q100 0 175 -75q51 -49 67 -110q8 -33 8 -64q0 -26 -6 -50q-13 -52 -31.5 -88t-37.5 -54l-770 -766q-27 -29 -74 -30h-3 q-45 0 -70 28q-27 27 -27 66q0 47 31 81l512 510q39 42 39 78q0 28 -23 53q-23 21 -49 21q-7 0 -15 -2q-36 -7 -67 -35l-510 -512q-45 -43 -69 -96q-16 -35 -17 -80q0 -23 4 -48q12 -76 82 -145q68 -68 144 -80q25 -4 47 -4q45 0 79 16q51 25 97 68l768 766q78 76 108 186 q30 62 30 126q0 136 -138 274q-84 84 -192 114q-49 14 -97 14q-58 0 -115 -20q-47 -16 -93 -42.5t-69 -45.5l-22 -18l-842 -842q-63 -63 -107 -143t-69 -188z" />
<glyph unicode="&#xf2;" d="M41 80l354 -352h1458q80 0 80 79v1731q0 82 -80 82h-1730q-82 0 -82 -82v-1458zM201 1225v221h223v-221h-223zM526 -80v500q0 18 12.5 30.5t30.5 12.5h1067q16 0 29.5 -12.5t13.5 -30.5v-500q0 -16 -13 -29.5t-30 -13.5h-1067q-18 0 -30.5 13.5t-12.5 29.5zM666 -23 q0 -23 26 -22h180q8 0 16.5 7t8.5 15v383q0 10 -8 17.5t-17 7.5h-180q-27 0 -26 -25v-383z" />
<glyph unicode="&#xf3;" d="M41 -338v1972h1743v-1972h-246v424h-506v-424h-246v424h-526v-424h-219zM260 387h277v150h-277v-150zM260 684h277v154h-277v-154zM260 961h277v178h-277v-178zM260 1262h277v176h-277v-176zM762 387h270v150h-270v-150zM762 664h270v174h-270v-174zM762 961h270v178 h-270v-178zM762 1262h270v176h-270v-176zM1284 387h275v150h-275v-150zM1284 664h275v174h-275v-174zM1284 961h275v178h-275v-178zM1284 1262h275v176h-275v-176z" />
<glyph unicode="&#xf4;" d="M41 -338v1972h1743v-1972h-246v424h-506v-424h-246v424h-526v-424h-219zM260 387h277v150h-277v-150zM260 684h277v154h-277v-154zM260 961h277v178h-277v-178zM260 1262h277v176h-277v-176zM762 387h270v150h-270v-150zM762 664h270v174h-270v-174zM762 961h270v178 h-270v-178zM762 1262h270v176h-270v-176zM1284 387h275v150h-275v-150zM1284 664h275v174h-275v-174zM1284 961h275v178h-275v-178zM1284 1262h275v176h-275v-176z" />
<glyph unicode="&#xf5;" d="M41 -338v1972h1743v-1972h-246v424h-506v-424h-246v424h-526v-424h-219zM260 387h277v150h-277v-150zM260 684h277v154h-277v-154zM260 961h277v178h-277v-178zM260 1262h277v176h-277v-176zM762 387h270v150h-270v-150zM762 664h270v174h-270v-174zM762 961h270v178 h-270v-178zM762 1262h270v176h-270v-176zM1284 387h275v150h-275v-150zM1284 664h275v174h-275v-174zM1284 961h275v178h-275v-178zM1284 1262h275v176h-275v-176z" />
<glyph unicode="&#xf6;" d="M41 -338v1972h1743v-1972h-246v424h-506v-424h-246v424h-526v-424h-219zM260 387h277v150h-277v-150zM260 684h277v154h-277v-154zM260 961h277v178h-277v-178zM260 1262h277v176h-277v-176zM762 387h270v150h-270v-150zM762 664h270v174h-270v-174zM762 961h270v178 h-270v-178zM762 1262h270v176h-270v-176zM1284 387h275v150h-275v-150zM1284 664h275v174h-275v-174zM1284 961h275v178h-275v-178zM1284 1262h275v176h-275v-176z" />
<glyph unicode="&#xf9;" d="M721 1061h936l-467 -719z" />
<glyph unicode="&#xfa;" d="M651 342l467 719l469 -719h-936z" />
<glyph unicode="&#xfb;" d="M651 342l467 719l469 -719h-936z" />
<glyph unicode="&#xfc;" d="M651 342l467 719l469 -719h-936z" />
<glyph unicode="&#xfd;" d="M41 457l428 426v-293h961v-268h-961v-293zM700 842h963v-293l426 426l-426 426v-293h-963v-266z" />
<glyph unicode="&#xff;" d="M41 457l428 426v-293h961v-268h-961v-293zM700 842h963v-293l426 426l-426 426v-293h-963v-266z" />
<glyph unicode="&#x152;" horiz-adv-x="4734" d="M43 1167q14 145 117 248q104 104 250 119q22 2 43 2q120 0 219 -68l-566 -563q-66 99 -65 218q0 21 2 44zM209 516q0 295 209 505t506 210q295 0 503.5 -210t208.5 -505q0 -291 -202 -500l180 -182q17 -16 17 -33t-17 -34l-17 -17q-14 -12 -33.5 -12t-33.5 12l-187 187 l-2 2q-186 -137 -417 -138q-213 0 -396 119l-170 -170q-14 -12 -33.5 -12t-33.5 12l-17 17q-16 17 -16 34t16 33l158 162q-223 209 -223 520zM446 516q0 -197 139.5 -337t338.5 -140q197 0 336 140t139 337t-139.5 336t-335.5 139q-199 0 -338.5 -139t-139.5 -336zM852 541 v297q0 23 16.5 40t41 17t42 -17.5t17.5 -39.5v-269l172 -137q18 -16 20 -40.5t-12 -43.5q-16 -23 -47 -22q-20 0 -35 14l-195 154q-24 20 -20 47zM1217 1468q99 68 218 68q21 0 44 -2q145 -14 250 -119q102 -102 116 -248q2 -23 2 -44q0 -119 -65 -218z" />
<glyph unicode="&#x153;" horiz-adv-x="4734" d="M2408 -442l219 602l389 -381zM2768 285l363 -391l1091 1091l-372 369zM3966 1470l238 250l395 -372l-258 -250zM41 -338v1972h1743v-1972h-246v424h-506v-424h-246v424h-526v-424h-219zM260 387h277v150h-277v-150zM260 684h277v154h-277v-154zM260 961h277v178h-277 v-178zM260 1262h277v176h-277v-176zM762 387h270v150h-270v-150zM762 664h270v174h-270v-174zM762 961h270v178h-270v-178zM762 1262h270v176h-270v-176zM1284 387h275v150h-275v-150zM1284 664h275v174h-275v-174zM1284 961h275v178h-275v-178zM1284 1262h275v176h-275 v-176z" />
<glyph unicode="&#x178;" d="M41 293v1153h752v115h229v-115h750v-1153h-750v-217l455 -359h-113l-342 236v-4h-229v4l-344 -236h-113l457 359v217h-752zM156 408h1501v780h-1501v-780zM223 573l111 322l182 -279l170 269l156 -254l121 373q6 27 34 18q10 -2 16.5 -14.5t4.5 -22.5l-160 -491l-172 280 l-170 -262l-166 254l-74 -211q-8 -29 -36 -20q-18 10 -18 28q0 4 1 10zM1174 532v115h114v-115h-114zM1176 901q0 61 44 106.5t105 45.5q63 0 107.5 -45t44.5 -107q0 -63 -44 -108t-108 -45q-61 0 -105 45t-44 108zM1403 532v115h115v-115h-115z" />
<glyph unicode="&#x2c6;" horiz-adv-x="1441" />
<glyph unicode="&#x2da;" horiz-adv-x="1441" />
<glyph unicode="&#x2dc;" horiz-adv-x="1441" />
<glyph unicode="&#x2000;" horiz-adv-x="935" />
<glyph unicode="&#x2001;" horiz-adv-x="1871" />
<glyph unicode="&#x2002;" horiz-adv-x="935" />
<glyph unicode="&#x2003;" horiz-adv-x="1871" />
<glyph unicode="&#x2004;" horiz-adv-x="622" />
<glyph unicode="&#x2005;" horiz-adv-x="466" />
<glyph unicode="&#x2006;" horiz-adv-x="311" />
<glyph unicode="&#x2007;" horiz-adv-x="311" />
<glyph unicode="&#x2008;" horiz-adv-x="233" />
<glyph unicode="&#x2009;" horiz-adv-x="372" />
<glyph unicode="&#x200a;" horiz-adv-x="102" />
<glyph unicode="&#x2010;" d="M41 604q0 379 268 647q178 178 413.5 241.5t472.5 0.5t413 -242q270 -268 270 -647t-270 -649q-268 -270 -648 -270t-651 270q-268 270 -268 649zM383 496h1153v235h-1153v-235z" />
<glyph unicode="&#x2011;" d="M41 604q0 379 268 647q178 178 413.5 241.5t472.5 0.5t413 -242q270 -268 270 -647t-270 -649q-268 -270 -648 -270t-651 270q-268 270 -268 649zM383 496h1153v235h-1153v-235z" />
<glyph unicode="&#x2012;" d="M41 604q0 379 268 647q178 178 413.5 241.5t472.5 0.5t413 -242q270 -268 270 -647t-270 -649q-268 -270 -648 -270t-651 270q-268 270 -268 649zM383 496h1153v235h-1153v-235z" />
<glyph unicode="&#x2013;" horiz-adv-x="2492" d="M41 -8v1132q0 86 63.5 149.5t149.5 63.5h1984q88 0 150.5 -63.5t62.5 -149.5v-1132q0 -88 -62 -150.5t-151 -62.5h-1984q-86 0 -149.5 62.5t-63.5 150.5zM315 477q0 -23 17.5 -40t42.5 -17h117q18 -57 49 -98l-80 -82q-18 -16 -18.5 -41t18.5 -43l41 -39 q18 -18 42.5 -18.5t41.5 18.5l90 88q41 -23 96 -33v-123q0 -23 17.5 -40t41.5 -17h60q23 0 40 17.5t17 39.5v139q20 8 86 41l94 -92q16 -18 41 -18t43 18l39 41q18 16 18.5 41t-18.5 43l-102 105q18 39 29 82h141q23 0 40 17t17 42v57q0 25 -17.5 42.5t-39.5 17.5h-148 q-16 47 -36 80l96 98q18 18 18 43.5t-18 40.5l-41 41q-14 18 -40 18t-44 -18l-100 -99q-29 18 -86 37v127q0 25 -17.5 42.5t-42.5 17.5h-57q-25 0 -42.5 -17.5t-17.5 -42.5v-127q-43 -12 -96 -41l-82 82q-18 18 -42.5 18.5t-41.5 -18.5l-41 -41q-18 -18 -18 -41.5t18 -42.5 l86 -86q-33 -55 -41 -102h-110q-25 0 -42.5 -16.5t-17.5 -40.5v-60zM686 520q0 63 42 106.5t103.5 43.5t104.5 -43t43 -107q0 -59 -43 -102t-104.5 -43t-103.5 43t-42 102zM1655 317h565l-283 385z" />
<glyph unicode="&#x2014;" horiz-adv-x="2492" d="M41 -8v1132q0 86 63.5 149.5t149.5 63.5h1984q88 0 150.5 -63.5t62.5 -149.5v-1132q0 -88 -62 -150.5t-151 -62.5h-1984q-86 0 -149.5 62.5t-63.5 150.5zM315 477q0 -23 17.5 -40t42.5 -17h117q18 -57 49 -98l-80 -82q-18 -16 -18.5 -41t18.5 -43l41 -39 q18 -18 42.5 -18.5t41.5 18.5l90 88q41 -23 96 -33v-123q0 -23 17.5 -40t41.5 -17h60q23 0 40 17.5t17 39.5v139q20 8 86 41l94 -92q16 -18 41 -18t43 18l39 41q18 16 18.5 41t-18.5 43l-102 105q18 39 29 82h141q23 0 40 17t17 42v57q0 25 -17.5 42.5t-39.5 17.5h-148 q-16 47 -36 80l96 98q18 18 18 43.5t-18 40.5l-41 41q-14 18 -40 18t-44 -18l-100 -99q-29 18 -86 37v127q0 25 -17.5 42.5t-42.5 17.5h-57q-25 0 -42.5 -17.5t-17.5 -42.5v-127q-43 -12 -96 -41l-82 82q-18 18 -42.5 18.5t-41.5 -18.5l-41 -41q-18 -18 -18 -41.5t18 -42.5 l86 -86q-33 -55 -41 -102h-110q-25 0 -42.5 -16.5t-17.5 -40.5v-60zM686 520q0 63 42 106.5t103.5 43.5t104.5 -43t43 -107q0 -59 -43 -102t-104.5 -43t-103.5 43t-42 102zM1655 702l282 -385l283 385h-565z" />
<glyph unicode="&#x2018;" horiz-adv-x="1544" />
<glyph unicode="&#x2019;" horiz-adv-x="1544" />
<glyph unicode="&#x201a;" horiz-adv-x="1544" />
<glyph unicode="&#x201c;" d="M41 -254v1704h1184v-1704h-424v338h-338v-338h-422zM209 338h170v254h-170v-254zM209 676h170v254h-170v-254zM209 1016h170v252h-170v-252zM547 338h170v254h-170v-254zM547 676h170v254h-170v-254zM547 1016h170v252h-170v-252zM887 338h168v254h-168v-254zM887 676 h168v254h-168v-254zM887 1016h168v252h-168v-252z" />
<glyph unicode="&#x201d;" d="M41 -254v1704h1184v-1704h-424v338h-338v-338h-422zM209 338h170v254h-170v-254zM209 676h170v254h-170v-254zM209 1016h170v252h-170v-252zM547 338h170v254h-170v-254zM547 676h170v254h-170v-254zM547 1016h170v252h-170v-252zM887 338h168v254h-168v-254zM887 676 h168v254h-168v-254zM887 1016h168v252h-168v-252z" />
<glyph unicode="&#x201e;" d="M41 985q0 -14 84 -45v-950q0 -96 68.5 -165t166.5 -69h609q96 0 164.5 69t68.5 165v950q88 31 88 45q0 35 -15 51.5t-47 25.5t-36 11q-25 12 -50.5 38t-37.5 50q-20 37 -88 51v9q0 96 -68.5 164.5t-167.5 68.5h-233q-96 0 -165 -68.5t-69 -164.5v-9q-72 -14 -88 -51 q-12 -25 -37.5 -50.5t-50.5 -37.5q-6 -2 -27.5 -10t-34 -15.5t-23.5 -23.5t-11 -39zM242 -10v938h305h233h305v-938q0 -47 -34.5 -82t-81.5 -35h-609q-49 0 -83.5 35t-34.5 82zM371 -10h116v821h-116v-821zM430 1221q0 47 35 81.5t82 34.5h233q49 0 84 -34.5t35 -81.5h-119 h-233h-117zM606 -10v821h117v-821h-117zM840 -10v821h116v-821h-116z" />
<glyph unicode="&#x2022;" />
<glyph unicode="&#x2026;" horiz-adv-x="7102" d="M4776 98q0 -98 69.5 -167.5t168.5 -69.5q100 0 168.5 68.5t68.5 168.5q0 98 -69.5 168t-167.5 70q-96 0 -167 -71t-71 -167zM5489 98q0 -100 69.5 -168.5t169.5 -68.5q98 0 168 69.5t70 167.5q0 96 -70.5 167t-167.5 71q-100 0 -169.5 -70t-69.5 -168zM6201 98 q0 -100 70 -168.5t168 -68.5t168 69.5t70 167.5q0 96 -71 167t-167 71q-98 0 -168 -71t-70 -167zM2408 98q0 -98 69.5 -167.5t168.5 -69.5q100 0 168.5 68.5t68.5 168.5q0 98 -69.5 168t-167.5 70q-96 0 -167 -71t-71 -167zM3121 98q0 -100 69.5 -168.5t169.5 -68.5 q98 0 168 69.5t70 167.5q0 96 -70.5 167t-167.5 71q-100 0 -169.5 -70t-69.5 -168zM3833 98q0 -100 70 -168.5t168 -68.5t168 69.5t70 167.5q0 96 -71 167t-167 71q-98 0 -168 -71t-70 -167zM41 98q0 -98 69.5 -167.5t168.5 -69.5q100 0 168.5 68.5t68.5 168.5 q0 98 -69.5 168t-167.5 70q-96 0 -167 -71t-71 -167zM754 98q0 -100 69.5 -168.5t169.5 -68.5q98 0 168 69.5t70 167.5q0 96 -70.5 167t-167.5 71q-100 0 -169.5 -70t-69.5 -168zM1466 98q0 -100 70 -168.5t168 -68.5t168 69.5t70 167.5q0 96 -71 167t-167 71 q-98 0 -168 -71t-70 -167z" />
<glyph unicode="&#x202f;" horiz-adv-x="372" />
<glyph unicode="&#x2039;" />
<glyph unicode="&#x203a;" />
<glyph unicode="&#x205f;" horiz-adv-x="466" />
<glyph unicode="&#x20ac;" d="M41 434q0 289 205 495t493 206q291 0 496 -206t205 -495t-205 -493.5t-496 -204.5q-289 0 -493.5 204.5t-204.5 493.5zM649 424q0 -57 47 -80l246 -113q29 -16 61.5 -4.5t47.5 39.5l2 13q16 33 7 65.5t-42 48.5l-191 88v264q0 35 -22.5 59.5t-56.5 24.5h-15 q-35 0 -59.5 -24.5t-24.5 -59.5v-319v-2zM1012 1257v43q0 27 16 43.5t41 16.5h240v172h110v-172h531v172h114v-172h234q25 0 43 -17.5t18 -42.5v-116h-1185q-84 48 -162 73zM1262 1124h1097v-995q0 -23 -18.5 -40t-42.5 -17h-770q37 92 43 114h84v238h-51v10v47h51v234h-94 q-2 6 -7.5 18t-9.5 23l-8 20h119v234h-236v-41q-65 89 -157 155zM1716 186h234v238h-234v-238zM1716 481h234v234h-234v-234zM1716 776h234v234h-234v-234zM2009 186h232v238h-232v-238zM2009 481h232v234h-232v-234zM2009 776h232v234h-232v-234z" />
<glyph unicode="&#x2122;" horiz-adv-x="2404" d="M41 634.5q0 360.5 255 614.5t615.5 254t615.5 -254t255 -614.5t-255 -616.5t-615.5 -256t-615.5 256t-255 616.5zM376 917.5q1 -61.5 23.5 -132t88 -172t169.5 -207.5q109 -113 214.5 -184.5t181 -96.5t139 -27t97.5 9.5t48 27.5l-258 262q-14 -14 -29.5 -16t-38 10 t-45 28.5t-61.5 47.5q-94 74 -188 184q-18 27 -27.5 41.5t-20 35t-7 36.5t15.5 31l-264 266q-16 -18 -27.5 -50t-10.5 -93.5zM451 1098l264 -264l73 71q14 12 13.5 29.5t-13.5 28.5l-208 208q-10 12 -27.5 12.5t-30.5 -12.5zM1114 434l260 -260l12 12l25 25l27 27l10 10h2 q29 29 -2 55l-201 205q-33 29 -59 0z" />
<glyph unicode="&#xe000;" horiz-adv-x="1420" d="M0 1420h1420v-1420h-1420v1420z" />
<glyph unicode="&#xfb01;" horiz-adv-x="4734" d="M2408 676q-2 -18 8 -43t29 -31q49 4 96 4q135 0 258 -35q-24 -71 -23 -152q0 -18 1 -36q6 -102 25.5 -182t47.5 -142l723 668q48 42 88 43q31 0 58 -27q16 -20 15 -43q0 -42 -48 -96l-723 -661q100 -55 239 -89q75 -18 145 -19q60 0 118 13q13 -101 13 -190.5t-13 -167.5 q8 -18 30 -31q17 -9 30 -9q4 0 7 1q51 8 72 70q39 143 39 301q0 40 -2 80q111 47 221 114q94 -174 125 -356q32 -33 62 -33q20 0 40 15q27 31 27 86q-20 172 -121 383q10 8 35 28.5t35 28.5q111 111 172 192q223 -141 411 -170h12q58 0 77 37q18 32 18 51.5t-18 26.5 q-205 49 -437.5 198.5t-439.5 375.5q-205 227 -334 468.5t-164 450.5q-8 25 -31 26q-18 0 -46 -16q-41 -33 -41 -82q10 -180 127 -428q-96 -68 -199 -155q-45 -41 -64 -68q-143 90 -366 160q-37 2 -55.5 -2t-38.5 -25q-25 -19 -25 -41q0 -26 33 -57q152 -37 346 -154 q-86 -113 -131 -213q-90 13 -178 13q-106 0 -209 -19q-58 -14 -76 -61zM3649 1432q80 29 201 47v10q0 43 36.5 110.5t123 135t192.5 80.5q16 -2 7 -17.5t-33.5 -43.5t-49 -68.5t-37.5 -92.5q-5 -22 -5 -46q0 -32 9 -68v-11q152 -31 259 -145q96 -102 116 -260q2 0 10 -6 q37 -13 77 -13q98 0 210 80q49 35 53 25v-8q-29 -152 -153 -240q-122 -86 -199 -86h-4t-6 6q-10 -61 -57 -198q-231 154 -420 362q-187 201 -330 447zM4032 1311q-9 -8 -8 -18q0 -12 11 -28q22 -30 69 -68t55 -46q10 -10 41 -56t55 -67q14 -11 26 -11q9 0 17 7q11 12 12 35 q0 26 -16 66q-29 75 -63 112q-39 35 -106 65q-39 18 -65 17q-17 0 -28 -8zM49 1217q-9 22 -9 42q0 36 28 69q43 52 128 86t155.5 53.5t137.5 29.5q154 45 525 45q348 0 524 -45q63 -12 127 -30.5t151 -52.5t133 -86q35 -40 35 -84q0 -14 -4 -27q12 -27 -366.5 -474.5 t-378.5 -451.5v-242v-287q0 -29 -79 -47t-142 -18q-76 0 -147.5 18.5t-71.5 46.5v287v242q0 4 -379 451.5t-367 474.5zM244 1235q0 -102 221 -173t549 -71q313 0 541.5 72t228.5 172q0 80 -229.5 139.5t-540.5 59.5q-324 0 -547 -58.5t-223 -140.5z" />
<glyph unicode="&#xfb02;" horiz-adv-x="4734" d="M2408 -215v950h141v344q0 227 163 393t390 166h47q223 0 388 -165.5t165 -393.5v-344h142v-950h-1436zM2867 735h512v344q0 92 -65.5 161t-164.5 69h-47q-88 0 -161.5 -71t-73.5 -159v-344zM49 1217q-9 22 -9 42q0 36 28 69q43 52 128 86t155.5 53.5t137.5 29.5 q154 45 525 45q348 0 524 -45q63 -12 127 -30.5t151 -52.5t133 -86q35 -40 35 -84q0 -14 -4 -27q12 -27 -366.5 -474.5t-378.5 -451.5v-242v-287q0 -29 -79 -47t-142 -18q-76 0 -147.5 18.5t-71.5 46.5v287v242q0 4 -379 451.5t-367 474.5zM244 1235q0 -102 221 -173 t549 -71q313 0 541.5 72t228.5 172q0 80 -229.5 139.5t-540.5 59.5q-324 0 -547 -58.5t-223 -140.5z" />
<glyph unicode="&#xfb03;" horiz-adv-x="7102" d="M4776 676q-2 -18 8 -43t29 -31q49 4 96 4q135 0 258 -35q-24 -71 -23 -152q0 -18 1 -36q6 -102 25.5 -182t47.5 -142l723 668q48 42 88 43q31 0 58 -27q16 -20 15 -43q0 -42 -48 -96l-723 -661q100 -55 239 -89q75 -18 145 -19q60 0 118 13q13 -101 13 -190.5t-13 -167.5 q8 -18 30 -31q17 -9 30 -9q4 0 7 1q51 8 72 70q39 143 39 301q0 40 -2 80q111 47 221 114q94 -174 125 -356q32 -33 62 -33q20 0 40 15q27 31 27 86q-20 172 -121 383q10 8 35 28.5t35 28.5q111 111 172 192q223 -141 411 -170h12q58 0 77 37q18 32 18 51.5t-18 26.5 q-205 49 -437.5 198.5t-439.5 375.5q-205 227 -334 468.5t-164 450.5q-8 25 -31 26q-18 0 -46 -16q-41 -33 -41 -82q10 -180 127 -428q-96 -68 -199 -155q-45 -41 -64 -68q-143 90 -366 160q-37 2 -55.5 -2t-38.5 -25q-25 -19 -25 -41q0 -26 33 -57q152 -37 346 -154 q-86 -113 -131 -213q-90 13 -178 13q-106 0 -209 -19q-58 -14 -76 -61zM6017 1432q80 29 201 47v10q0 43 36.5 110.5t123 135t192.5 80.5q16 -2 7 -17.5t-33.5 -43.5t-49 -68.5t-37.5 -92.5q-5 -22 -5 -46q0 -32 9 -68v-11q152 -31 259 -145q96 -102 116 -260q2 0 10 -6 q37 -13 77 -13q98 0 210 80q49 35 53 25v-8q-29 -152 -153 -240q-122 -86 -199 -86h-4t-6 6q-10 -61 -57 -198q-231 154 -420 362q-187 201 -330 447zM6400 1311q-9 -8 -8 -18q0 -12 11 -28q22 -30 69 -68t55 -46q10 -10 41 -56t55 -67q14 -11 26 -11q9 0 17 7q11 12 12 35 q0 26 -16 66q-29 75 -63 112q-39 35 -106 65q-39 18 -65 17q-17 0 -28 -8zM2416 1217q-9 22 -9 42q0 36 28 69q43 52 128 86t155.5 53.5t137.5 29.5q154 45 525 45q348 0 524 -45q63 -12 127 -30.5t151 -52.5t133 -86q35 -40 35 -84q0 -14 -4 -27q12 -27 -366.5 -474.5 t-378.5 -451.5v-242v-287q0 -29 -79 -47t-142 -18q-76 0 -147.5 18.5t-71.5 46.5v287v242q0 4 -379 451.5t-367 474.5zM2611 1235q0 -102 221 -173t549 -71q313 0 541.5 72t228.5 172q0 80 -229.5 139.5t-540.5 59.5q-324 0 -547 -58.5t-223 -140.5zM49 1217q-9 22 -9 42 q0 36 28 69q43 52 128 86t155.5 53.5t137.5 29.5q154 45 525 45q348 0 524 -45q63 -12 127 -30.5t151 -52.5t133 -86q35 -40 35 -84q0 -14 -4 -27q12 -27 -366.5 -474.5t-378.5 -451.5v-242v-287q0 -29 -79 -47t-142 -18q-76 0 -147.5 18.5t-71.5 46.5v287v242 q0 4 -379 451.5t-367 474.5zM244 1235q0 -102 221 -173t549 -71q313 0 541.5 72t228.5 172q0 80 -229.5 139.5t-540.5 59.5q-324 0 -547 -58.5t-223 -140.5z" />
<glyph unicode="&#xfb04;" horiz-adv-x="7102" d="M4776 -215v950h141v344q0 227 163 393t390 166h47q223 0 388 -165.5t165 -393.5v-344h142v-950h-1436zM5235 735h512v344q0 92 -65.5 161t-164.5 69h-47q-88 0 -161.5 -71t-73.5 -159v-344zM2416 1217q-9 22 -9 42q0 36 28 69q43 52 128 86t155.5 53.5t137.5 29.5 q154 45 525 45q348 0 524 -45q63 -12 127 -30.5t151 -52.5t133 -86q35 -40 35 -84q0 -14 -4 -27q12 -27 -366.5 -474.5t-378.5 -451.5v-242v-287q0 -29 -79 -47t-142 -18q-76 0 -147.5 18.5t-71.5 46.5v287v242q0 4 -379 451.5t-367 474.5zM2611 1235q0 -102 221 -173 t549 -71q313 0 541.5 72t228.5 172q0 80 -229.5 139.5t-540.5 59.5q-324 0 -547 -58.5t-223 -140.5zM49 1217q-9 22 -9 42q0 36 28 69q43 52 128 86t155.5 53.5t137.5 29.5q154 45 525 45q348 0 524 -45q63 -12 127 -30.5t151 -52.5t133 -86q35 -40 35 -84q0 -14 -4 -27 q12 -27 -366.5 -474.5t-378.5 -451.5v-242v-287q0 -29 -79 -47t-142 -18q-76 0 -147.5 18.5t-71.5 46.5v287v242q0 4 -379 451.5t-367 474.5zM244 1235q0 -102 221 -173t549 -71q313 0 541.5 72t228.5 172q0 80 -229.5 139.5t-540.5 59.5q-324 0 -547 -58.5t-223 -140.5z " />
</font>
</defs>
</svg>
